<?xml version="1.0" encoding="utf-8" ?>
<svg baseProfile="full" height="57.5mm" version="1.1" viewBox="0,0,306.20000000000005,57.5" width="306.20000000000005mm" xmlns="http://www.w3.org/2000/svg" xmlns:ev="http://www.w3.org/2001/xml-events" xmlns:xlink="http://www.w3.org/1999/xlink"><defs /><rect fill="#FFFFFF" height="57.5" width="306.20000000000005" x="0" y="0" /><text fill="#000000" style="font-size:6px; font-family:Arial; font-weight:bold;" x="10" y="10">Reading Track</text><text fill="#000000" style="font-size:3px; font-family:Arial;" x="10" y="14.4">2024: 223 hours</text><text fill="#000000" style="font-size:2.5px; font-family:Arial" x="10" y="18.3">Jan</text><rect fill="#058cb0" height="4" rx="1" ry="1" width="4" x="10" y="19.7"><title>2024-01-01 82.22 mins</title></rect><rect fill="#058cb0" height="4" rx="1" ry="1" width="4" x="10" y="25.1"><title>2024-01-02 119.77 mins</title></rect><rect fill="#058cb0" height="4" rx="1" ry="1" width="4" x="10" y="30.5"><title>2024-01-03 87.02 mins</title></rect><rect fill="#058cb0" height="4" rx="1" ry="1" width="4" x="10" y="35.9"><title>2024-01-04 99.72 mins</title></rect><rect fill="#6eadcf" height="4" rx="1" ry="1" width="4" x="10" y="41.300000000000004"><title>2024-01-05 32.42 mins</title></rect><rect fill="#bac7e0" height="4" rx="1" ry="1" width="4" x="10" y="46.699999999999996"><title>2024-01-06 13.63 mins</title></rect><rect fill="#67abd0" height="4" rx="1" ry="1" width="4" x="10" y="52.1"><title>2024-01-07 68.62 mins</title></rect><rect fill="#b8c6e0" height="4" rx="1" ry="1" width="4" x="15.4" y="19.7"><title>2024-01-08 19.78 mins</title></rect><rect fill="#68abd0" height="4" rx="1" ry="1" width="4" x="15.4" y="25.1"><title>2024-01-09 64.72 mins</title></rect><rect fill="#058cb0" height="4" rx="1" ry="1" width="4" x="15.4" y="30.5"><title>2024-01-10 72.47 mins</title></rect><rect fill="#058cb0" height="4" rx="1" ry="1" width="4" x="15.4" y="35.9"><title>2024-01-11 120.22 mins</title></rect><rect fill="#6eadcf" height="4" rx="1" ry="1" width="4" x="15.4" y="41.300000000000004"><title>2024-01-12 31.3 mins</title></rect><rect fill="#b9c6e0" height="4" rx="1" ry="1" width="4" x="15.4" y="46.699999999999996"><title>2024-01-13 18.87 mins</title></rect><rect fill="#67abd0" height="4" rx="1" ry="1" width="4" x="15.4" y="52.1"><title>2024-01-14 72.43 mins</title></rect><rect fill="#058cb0" height="4" rx="1" ry="1" width="4" x="20.8" y="19.7"><title>2024-01-15 131.18 mins</title></rect><rect fill="#bcc9e1" height="4" rx="1" ry="1" width="4" x="20.8" y="25.1"><title>2024-01-16 2.37 mins</title></rect><rect fill="#058cb0" height="4" rx="1" ry="1" width="4" x="20.8" y="30.5"><title>2024-01-17 82.52 mins</title></rect><rect fill="#68abd0" height="4" rx="1" ry="1" width="4" x="20.8" y="35.9"><title>2024-01-18 63.37 mins</title></rect><rect fill="#6fadcf" height="4" rx="1" ry="1" width="4" x="20.8" y="41.300000000000004"><title>2024-01-19 26.52 mins</title></rect><rect fill="#058cb0" height="4" rx="1" ry="1" width="4" x="20.8" y="46.699999999999996"><title>2024-01-20 207.72 mins</title></rect><rect fill="#6eadcf" height="4" rx="1" ry="1" width="4" x="20.8" y="52.1"><title>2024-01-21 30.8 mins</title></rect><rect fill="#058cb0" height="4" rx="1" ry="1" width="4" x="26.200000000000003" y="19.7"><title>2024-01-22 87.53 mins</title></rect><rect fill="#bbc8e1" height="4" rx="1" ry="1" width="4" x="26.200000000000003" y="25.1"><title>2024-01-23 7.13 mins</title></rect><rect fill="#058cb0" height="4" rx="1" ry="1" width="4" x="26.200000000000003" y="30.5"><title>2024-01-24 103.27 mins</title></rect><rect fill="#6eadcf" height="4" rx="1" ry="1" width="4" x="26.200000000000003" y="35.9"><title>2024-01-25 34.98 mins</title></rect><rect fill="#058cb0" height="4" rx="1" ry="1" width="4" x="26.200000000000003" y="41.300000000000004"><title>2024-01-26 89.62 mins</title></rect><rect fill="#b9c7e0" height="4" rx="1" ry="1" width="4" x="26.200000000000003" y="46.699999999999996"><title>2024-01-27 15.5 mins</title></rect><rect fill="#6aacd0" height="4" rx="1" ry="1" width="4" x="26.200000000000003" y="52.1"><title>2024-01-28 55.78 mins</title></rect><rect fill="#bbc8e1" height="4" rx="1" ry="1" width="4" x="31.6" y="19.7"><title>2024-01-29 8.87 mins</title></rect><rect fill="#6caccf" height="4" rx="1" ry="1" width="4" x="31.6" y="25.1"><title>2024-01-30 41.72 mins</title></rect><rect fill="#bbc8e0" height="4" rx="1" ry="1" width="4" x="31.6" y="30.5"><title>2024-01-31 9.58 mins</title></rect><rect fill="#058cb0" height="4" rx="1" ry="1" width="4" x="31.6" y="35.9"><title>2024-02-01 90.93 mins</title></rect><rect fill="#058cb0" height="4" rx="1" ry="1" width="4" x="31.6" y="41.300000000000004"><title>2024-02-02 79.52 mins</title></rect><rect fill="#bac7e0" height="4" rx="1" ry="1" width="4" x="31.6" y="46.699999999999996"><title>2024-02-03 14.37 mins</title></rect><rect fill="#bcc9e1" height="4" rx="1" ry="1" width="4" x="31.6" y="52.1"><title>2024-02-04 2.68 mins</title></rect><text fill="#000000" style="font-size:2.5px; font-family:Arial" x="37.0" y="18.3">Feb</text><rect fill="#6caccf" height="4" rx="1" ry="1" width="4" x="37.0" y="19.7"><title>2024-02-05 44.9 mins</title></rect><rect fill="#bbc8e1" height="4" rx="1" ry="1" width="4" x="37.0" y="25.1"><title>2024-02-06 8.77 mins</title></rect><rect fill="#68abd0" height="4" rx="1" ry="1" width="4" x="37.0" y="30.5"><title>2024-02-07 64.38 mins</title></rect><rect fill="#bdc9e1" height="4" rx="1" ry="1" width="4" x="37.0" y="35.9"><title>2024-02-08 1.2 mins</title></rect><rect fill="#6daccf" height="4" rx="1" ry="1" width="4" x="37.0" y="41.300000000000004"><title>2024-02-09 36.87 mins</title></rect><rect fill="#058cb0" height="4" rx="1" ry="1" width="4" x="37.0" y="46.699999999999996"><title>2024-02-10 107.3 mins</title></rect><rect fill="#058cb0" height="4" rx="1" ry="1" width="4" x="37.0" y="52.1"><title>2024-02-11 101.35 mins</title></rect><rect fill="#058cb0" height="4" rx="1" ry="1" width="4" x="42.4" y="19.7"><title>2024-02-12 167.0 mins</title></rect><rect fill="#058cb0" height="4" rx="1" ry="1" width="4" x="42.4" y="25.1"><title>2024-02-13 159.2 mins</title></rect><rect fill="#058cb0" height="4" rx="1" ry="1" width="4" x="42.4" y="30.5"><title>2024-02-14 156.32 mins</title></rect><rect fill="#f1eef6" height="4" rx="1" ry="1" width="4" x="42.4" y="35.9"><title>2024-02-15</title></rect><rect fill="#67abd0" height="4" rx="1" ry="1" width="4" x="42.4" y="41.300000000000004"><title>2024-02-16 69.75 mins</title></rect><rect fill="#6eadcf" height="4" rx="1" ry="1" width="4" x="42.4" y="46.699999999999996"><title>2024-02-17 30.77 mins</title></rect><rect fill="#6baccf" height="4" rx="1" ry="1" width="4" x="42.4" y="52.1"><title>2024-02-18 48.85 mins</title></rect><rect fill="#bac7e0" height="4" rx="1" ry="1" width="4" x="47.8" y="19.7"><title>2024-02-19 11.98 mins</title></rect><rect fill="#058cb0" height="4" rx="1" ry="1" width="4" x="47.8" y="25.1"><title>2024-02-20 115.6 mins</title></rect><rect fill="#058cb0" height="4" rx="1" ry="1" width="4" x="47.8" y="30.5"><title>2024-02-21 84.17 mins</title></rect><rect fill="#058cb0" height="4" rx="1" ry="1" width="4" x="47.8" y="35.9"><title>2024-02-22 367.7 mins</title></rect><rect fill="#bdc9e1" height="4" rx="1" ry="1" width="4" x="47.8" y="41.300000000000004"><title>2024-02-23 1.47 mins</title></rect><rect fill="#058cb0" height="4" rx="1" ry="1" width="4" x="47.8" y="46.699999999999996"><title>2024-02-24 255.03 mins</title></rect><rect fill="#6aacd0" height="4" rx="1" ry="1" width="4" x="47.8" y="52.1"><title>2024-02-25 56.4 mins</title></rect><rect fill="#bcc8e1" height="4" rx="1" ry="1" width="4" x="53.199999999999996" y="19.7"><title>2024-02-26 3.8 mins</title></rect><rect fill="#bac7e0" height="4" rx="1" ry="1" width="4" x="53.199999999999996" y="25.1"><title>2024-02-27 11.1 mins</title></rect><rect fill="#bdc9e1" height="4" rx="1" ry="1" width="4" x="53.199999999999996" y="30.5"><title>2024-02-28 1.8 mins</title></rect><rect fill="#058cb0" height="4" rx="1" ry="1" width="4" x="53.199999999999996" y="35.9"><title>2024-02-29 77.9 mins</title></rect><rect fill="#058cb0" height="4" rx="1" ry="1" width="4" x="53.199999999999996" y="41.300000000000004"><title>2024-03-01 85.02 mins</title></rect><rect fill="#6caccf" height="4" rx="1" ry="1" width="4" x="53.199999999999996" y="46.699999999999996"><title>2024-03-02 41.08 mins</title></rect><rect fill="#bcc8e1" height="4" rx="1" ry="1" width="4" x="53.199999999999996" y="52.1"><title>2024-03-03 3.83 mins</title></rect><text fill="#000000" style="font-size:2.5px; font-family:Arial" x="58.599999999999994" y="18.3">Mar</text><rect fill="#68abd0" height="4" rx="1" ry="1" width="4" x="58.599999999999994" y="19.7"><title>2024-03-04 62.9 mins</title></rect><rect fill="#6fadcf" height="4" rx="1" ry="1" width="4" x="58.599999999999994" y="25.1"><title>2024-03-05 29.95 mins</title></rect><rect fill="#69acd0" height="4" rx="1" ry="1" width="4" x="58.599999999999994" y="30.5"><title>2024-03-06 60.98 mins</title></rect><rect fill="#f1eef6" height="4" rx="1" ry="1" width="4" x="58.599999999999994" y="35.9"><title>2024-03-07</title></rect><rect fill="#b9c6e0" height="4" rx="1" ry="1" width="4" x="58.599999999999994" y="41.300000000000004"><title>2024-03-08 18.75 mins</title></rect><rect fill="#69acd0" height="4" rx="1" ry="1" width="4" x="58.599999999999994" y="46.699999999999996"><title>2024-03-09 60.42 mins</title></rect><rect fill="#bcc8e1" height="4" rx="1" ry="1" width="4" x="58.599999999999994" y="52.1"><title>2024-03-10 4.4 mins</title></rect><rect fill="#6bacd0" height="4" rx="1" ry="1" width="4" x="63.99999999999999" y="19.7"><title>2024-03-11 50.58 mins</title></rect><rect fill="#058cb0" height="4" rx="1" ry="1" width="4" x="63.99999999999999" y="25.1"><title>2024-03-12 188.53 mins</title></rect><rect fill="#058cb0" height="4" rx="1" ry="1" width="4" x="63.99999999999999" y="30.5"><title>2024-03-13 353.33 mins</title></rect><rect fill="#058cb0" height="4" rx="1" ry="1" width="4" x="63.99999999999999" y="35.9"><title>2024-03-14 111.38 mins</title></rect><rect fill="#6dadcf" height="4" rx="1" ry="1" width="4" x="63.99999999999999" y="41.300000000000004"><title>2024-03-15 35.45 mins</title></rect><rect fill="#6eadcf" height="4" rx="1" ry="1" width="4" x="63.99999999999999" y="46.699999999999996"><title>2024-03-16 32.85 mins</title></rect><rect fill="#058cb0" height="4" rx="1" ry="1" width="4" x="63.99999999999999" y="52.1"><title>2024-03-17 99.58 mins</title></rect><rect fill="#058cb0" height="4" rx="1" ry="1" width="4" x="69.39999999999999" y="19.7"><title>2024-03-18 360.8 mins</title></rect><rect fill="#058cb0" height="4" rx="1" ry="1" width="4" x="69.39999999999999" y="25.1"><title>2024-03-19 90.4 mins</title></rect><rect fill="#6eadcf" height="4" rx="1" ry="1" width="4" x="69.39999999999999" y="30.5"><title>2024-03-20 32.67 mins</title></rect><rect fill="#b9c6e0" height="4" rx="1" ry="1" width="4" x="69.39999999999999" y="35.9"><title>2024-03-21 17.53 mins</title></rect><rect fill="#bac7e0" height="4" rx="1" ry="1" width="4" x="69.39999999999999" y="41.300000000000004"><title>2024-03-22 14.38 mins</title></rect><rect fill="#6eadcf" height="4" rx="1" ry="1" width="4" x="69.39999999999999" y="46.699999999999996"><title>2024-03-23 30.22 mins</title></rect><rect fill="#058cb0" height="4" rx="1" ry="1" width="4" x="69.39999999999999" y="52.1"><title>2024-03-24 102.18 mins</title></rect><rect fill="#6eadcf" height="4" rx="1" ry="1" width="4" x="74.8" y="19.7"><title>2024-03-25 32.9 mins</title></rect><rect fill="#6baccf" height="4" rx="1" ry="1" width="4" x="74.8" y="25.1"><title>2024-03-26 48.12 mins</title></rect><rect fill="#6eadcf" height="4" rx="1" ry="1" width="4" x="74.8" y="30.5"><title>2024-03-27 35.15 mins</title></rect><rect fill="#6daccf" height="4" rx="1" ry="1" width="4" x="74.8" y="35.9"><title>2024-03-28 39.65 mins</title></rect><rect fill="#bac7e0" height="4" rx="1" ry="1" width="4" x="74.8" y="41.300000000000004"><title>2024-03-29 12.02 mins</title></rect><rect fill="#69acd0" height="4" rx="1" ry="1" width="4" x="74.8" y="46.699999999999996"><title>2024-03-30 59.02 mins</title></rect><rect fill="#6caccf" height="4" rx="1" ry="1" width="4" x="74.8" y="52.1"><title>2024-03-31 45.35 mins</title></rect><text fill="#000000" style="font-size:2.5px; font-family:Arial" x="80.2" y="18.3">Apr</text><rect fill="#6fadcf" height="4" rx="1" ry="1" width="4" x="80.2" y="19.7"><title>2024-04-01 29.43 mins</title></rect><rect fill="#bac7e0" height="4" rx="1" ry="1" width="4" x="80.2" y="25.1"><title>2024-04-02 11.45 mins</title></rect><rect fill="#6bacd0" height="4" rx="1" ry="1" width="4" x="80.2" y="30.5"><title>2024-04-03 50.65 mins</title></rect><rect fill="#b8c6e0" height="4" rx="1" ry="1" width="4" x="80.2" y="35.9"><title>2024-04-04 23.22 mins</title></rect><rect fill="#67abd0" height="4" rx="1" ry="1" width="4" x="80.2" y="41.300000000000004"><title>2024-04-05 68.45 mins</title></rect><rect fill="#6fadcf" height="4" rx="1" ry="1" width="4" x="80.2" y="46.699999999999996"><title>2024-04-06 29.83 mins</title></rect><rect fill="#058cb0" height="4" rx="1" ry="1" width="4" x="80.2" y="52.1"><title>2024-04-07 123.35 mins</title></rect><rect fill="#6eadcf" height="4" rx="1" ry="1" width="4" x="85.60000000000001" y="19.7"><title>2024-04-08 33.07 mins</title></rect><rect fill="#b7c5e0" height="4" rx="1" ry="1" width="4" x="85.60000000000001" y="25.1"><title>2024-04-09 23.87 mins</title></rect><rect fill="#058cb0" height="4" rx="1" ry="1" width="4" x="85.60000000000001" y="30.5"><title>2024-04-10 112.42 mins</title></rect><rect fill="#058cb0" height="4" rx="1" ry="1" width="4" x="85.60000000000001" y="35.9"><title>2024-04-11 119.37 mins</title></rect><rect fill="#67abd0" height="4" rx="1" ry="1" width="4" x="85.60000000000001" y="41.300000000000004"><title>2024-04-12 71.33 mins</title></rect><rect fill="#6aacd0" height="4" rx="1" ry="1" width="4" x="85.60000000000001" y="46.699999999999996"><title>2024-04-13 55.52 mins</title></rect><rect fill="#058cb0" height="4" rx="1" ry="1" width="4" x="85.60000000000001" y="52.1"><title>2024-04-14 434.9 mins</title></rect><rect fill="#6eadcf" height="4" rx="1" ry="1" width="4" x="91.00000000000001" y="19.7"><title>2024-04-15 33.97 mins</title></rect><rect fill="#bac7e0" height="4" rx="1" ry="1" width="4" x="91.00000000000001" y="25.1"><title>2024-04-16 13.13 mins</title></rect><rect fill="#bcc8e1" height="4" rx="1" ry="1" width="4" x="91.00000000000001" y="30.5"><title>2024-04-17 5.98 mins</title></rect><rect fill="#058cb0" height="4" rx="1" ry="1" width="4" x="91.00000000000001" y="35.9"><title>2024-04-18 89.32 mins</title></rect><rect fill="#058cb0" height="4" rx="1" ry="1" width="4" x="91.00000000000001" y="41.300000000000004"><title>2024-04-19 815.27 mins</title></rect><rect fill="#058cb0" height="4" rx="1" ry="1" width="4" x="91.00000000000001" y="46.699999999999996"><title>2024-04-20 467.4 mins</title></rect><rect fill="#6daccf" height="4" rx="1" ry="1" width="4" x="91.00000000000001" y="52.1"><title>2024-04-21 37.35 mins</title></rect><rect fill="#058cb0" height="4" rx="1" ry="1" width="4" x="96.40000000000002" y="19.7"><title>2024-04-22 86.72 mins</title></rect><rect fill="#6daccf" height="4" rx="1" ry="1" width="4" x="96.40000000000002" y="25.1"><title>2024-04-23 38.35 mins</title></rect><rect fill="#b9c6e0" height="4" rx="1" ry="1" width="4" x="96.40000000000002" y="30.5"><title>2024-04-24 17.75 mins</title></rect><rect fill="#69abd0" height="4" rx="1" ry="1" width="4" x="96.40000000000002" y="35.9"><title>2024-04-25 61.58 mins</title></rect><rect fill="#058cb0" height="4" rx="1" ry="1" width="4" x="96.40000000000002" y="41.300000000000004"><title>2024-04-26 84.5 mins</title></rect><rect fill="#058cb0" height="4" rx="1" ry="1" width="4" x="96.40000000000002" y="46.699999999999996"><title>2024-04-27 118.92 mins</title></rect><rect fill="#058cb0" height="4" rx="1" ry="1" width="4" x="96.40000000000002" y="52.1"><title>2024-04-28 111.12 mins</title></rect><rect fill="#058cb0" height="4" rx="1" ry="1" width="4" x="101.80000000000003" y="19.7"><title>2024-04-29 594.6 mins</title></rect><rect fill="#6fadcf" height="4" rx="1" ry="1" width="4" x="101.80000000000003" y="25.1"><title>2024-04-30 28.65 mins</title></rect><rect fill="#bbc8e0" height="4" rx="1" ry="1" width="4" x="101.80000000000003" y="30.5"><title>2024-05-01 9.6 mins</title></rect><rect fill="#bcc8e1" height="4" rx="1" ry="1" width="4" x="101.80000000000003" y="35.9"><title>2024-05-02 5.6 mins</title></rect><rect fill="#bcc8e1" height="4" rx="1" ry="1" width="4" x="101.80000000000003" y="41.300000000000004"><title>2024-05-03 3.78 mins</title></rect><rect fill="#bbc8e1" height="4" rx="1" ry="1" width="4" x="101.80000000000003" y="46.699999999999996"><title>2024-05-04 7.27 mins</title></rect><rect fill="#6eadcf" height="4" rx="1" ry="1" width="4" x="101.80000000000003" y="52.1"><title>2024-05-05 30.92 mins</title></rect><text fill="#000000" style="font-size:2.5px; font-family:Arial" x="107.20000000000003" y="18.3">May</text><rect fill="#6aacd0" height="4" rx="1" ry="1" width="4" x="107.20000000000003" y="19.7"><title>2024-05-06 54.93 mins</title></rect><rect fill="#bac7e0" height="4" rx="1" ry="1" width="4" x="107.20000000000003" y="25.1"><title>2024-05-07 14.48 mins</title></rect><rect fill="#bac7e0" height="4" rx="1" ry="1" width="4" x="107.20000000000003" y="30.5"><title>2024-05-08 13.83 mins</title></rect><rect fill="#b8c6e0" height="4" rx="1" ry="1" width="4" x="107.20000000000003" y="35.9"><title>2024-05-09 21.58 mins</title></rect><rect fill="#bbc8e1" height="4" rx="1" ry="1" width="4" x="107.20000000000003" y="41.300000000000004"><title>2024-05-10 8.5 mins</title></rect><rect fill="#f1eef6" height="4" rx="1" ry="1" width="4" x="107.20000000000003" y="46.699999999999996"><title>2024-05-11</title></rect><rect fill="#6fadcf" height="4" rx="1" ry="1" width="4" x="107.20000000000003" y="52.1"><title>2024-05-12 26.52 mins</title></rect><rect fill="#bdc9e1" height="4" rx="1" ry="1" width="4" x="112.60000000000004" y="19.7"><title>2024-05-13 2.17 mins</title></rect><rect fill="#b8c6e0" height="4" rx="1" ry="1" width="4" x="112.60000000000004" y="25.1"><title>2024-05-14 21.95 mins</title></rect><rect fill="#bac7e0" height="4" rx="1" ry="1" width="4" x="112.60000000000004" y="30.5"><title>2024-05-15 12.08 mins</title></rect><rect fill="#bbc8e1" height="4" rx="1" ry="1" width="4" x="112.60000000000004" y="35.9"><title>2024-05-16 6.87 mins</title></rect><rect fill="#bbc8e1" height="4" rx="1" ry="1" width="4" x="112.60000000000004" y="41.300000000000004"><title>2024-05-17 8.98 mins</title></rect><rect fill="#bcc8e1" height="4" rx="1" ry="1" width="4" x="112.60000000000004" y="46.699999999999996"><title>2024-05-18 4.95 mins</title></rect><rect fill="#bcc8e1" height="4" rx="1" ry="1" width="4" x="112.60000000000004" y="52.1"><title>2024-05-19 6.05 mins</title></rect><rect fill="#f1eef6" height="4" rx="1" ry="1" width="4" x="118.00000000000004" y="19.7"><title>2024-05-20</title></rect><rect fill="#bcc9e1" height="4" rx="1" ry="1" width="4" x="118.00000000000004" y="25.1"><title>2024-05-21 2.2 mins</title></rect><rect fill="#f1eef6" height="4" rx="1" ry="1" width="4" x="118.00000000000004" y="30.5"><title>2024-05-22</title></rect><rect fill="#f1eef6" height="4" rx="1" ry="1" width="4" x="118.00000000000004" y="35.9"><title>2024-05-23</title></rect><rect fill="#bbc8e1" height="4" rx="1" ry="1" width="4" x="118.00000000000004" y="41.300000000000004"><title>2024-05-24 8.27 mins</title></rect><rect fill="#bdc9e1" height="4" rx="1" ry="1" width="4" x="118.00000000000004" y="46.699999999999996"><title>2024-05-25 1.87 mins</title></rect><rect fill="#bdc9e1" height="4" rx="1" ry="1" width="4" x="118.00000000000004" y="52.1"><title>2024-05-26 0.17 mins</title></rect><rect fill="#bdc9e1" height="4" rx="1" ry="1" width="4" x="123.40000000000005" y="19.7"><title>2024-05-27 0.05 mins</title></rect><rect fill="#67abd0" height="4" rx="1" ry="1" width="4" x="123.40000000000005" y="25.1"><title>2024-05-28 71.7 mins</title></rect><rect fill="#bcc9e1" height="4" rx="1" ry="1" width="4" x="123.40000000000005" y="30.5"><title>2024-05-29 2.85 mins</title></rect><rect fill="#bdc9e1" height="4" rx="1" ry="1" width="4" x="123.40000000000005" y="35.9"><title>2024-05-30 0.3 mins</title></rect><rect fill="#b8c6e0" height="4" rx="1" ry="1" width="4" x="123.40000000000005" y="41.300000000000004"><title>2024-05-31 21.92 mins</title></rect><rect fill="#bac7e0" height="4" rx="1" ry="1" width="4" x="123.40000000000005" y="46.699999999999996"><title>2024-06-01 13.75 mins</title></rect><rect fill="#bcc8e1" height="4" rx="1" ry="1" width="4" x="123.40000000000005" y="52.1"><title>2024-06-02 6.3 mins</title></rect><text fill="#000000" style="font-size:2.5px; font-family:Arial" x="128.80000000000004" y="18.3">Jun</text><rect fill="#b9c6e0" height="4" rx="1" ry="1" width="4" x="128.80000000000004" y="19.7"><title>2024-06-03 18.82 mins</title></rect><rect fill="#bcc9e1" height="4" rx="1" ry="1" width="4" x="128.80000000000004" y="25.1"><title>2024-06-04 2.97 mins</title></rect><rect fill="#bdc9e1" height="4" rx="1" ry="1" width="4" x="128.80000000000004" y="30.5"><title>2024-06-05 1.37 mins</title></rect><rect fill="#b8c6e0" height="4" rx="1" ry="1" width="4" x="128.80000000000004" y="35.9"><title>2024-06-06 19.68 mins</title></rect><rect fill="#bcc8e1" height="4" rx="1" ry="1" width="4" x="128.80000000000004" y="41.300000000000004"><title>2024-06-07 5.03 mins</title></rect><rect fill="#f1eef6" height="4" rx="1" ry="1" width="4" x="128.80000000000004" y="46.699999999999996"><title>2024-06-08</title></rect><rect fill="#bcc8e1" height="4" rx="1" ry="1" width="4" x="128.80000000000004" y="52.1"><title>2024-06-09 5.48 mins</title></rect><rect fill="#b9c6e0" height="4" rx="1" ry="1" width="4" x="134.20000000000005" y="19.7"><title>2024-06-10 16.62 mins</title></rect><rect fill="#bac7e0" height="4" rx="1" ry="1" width="4" x="134.20000000000005" y="25.1"><title>2024-06-11 13.15 mins</title></rect><rect fill="#bdc9e1" height="4" rx="1" ry="1" width="4" x="134.20000000000005" y="30.5"><title>2024-06-12 0.02 mins</title></rect><rect fill="#bac7e0" height="4" rx="1" ry="1" width="4" x="134.20000000000005" y="35.9"><title>2024-06-13 11.12 mins</title></rect><rect fill="#67abd0" height="4" rx="1" ry="1" width="4" x="134.20000000000005" y="41.300000000000004"><title>2024-06-14 70.5 mins</title></rect><rect fill="#6fadcf" height="4" rx="1" ry="1" width="4" x="134.20000000000005" y="46.699999999999996"><title>2024-06-15 27.93 mins</title></rect><rect fill="#b9c6e0" height="4" rx="1" ry="1" width="4" x="134.20000000000005" y="52.1"><title>2024-06-16 18.4 mins</title></rect><rect fill="#f1eef6" height="4" rx="1" ry="1" width="4" x="139.60000000000005" y="19.7"><title>2024-06-17</title></rect><rect fill="#b8c6e0" height="4" rx="1" ry="1" width="4" x="139.60000000000005" y="25.1"><title>2024-06-18 19.6 mins</title></rect><rect fill="#6daccf" height="4" rx="1" ry="1" width="4" x="139.60000000000005" y="30.5"><title>2024-06-19 37.23 mins</title></rect><rect fill="#67abd0" height="4" rx="1" ry="1" width="4" x="139.60000000000005" y="35.9"><title>2024-06-20 68.13 mins</title></rect><rect fill="#058cb0" height="4" rx="1" ry="1" width="4" x="139.60000000000005" y="41.300000000000004"><title>2024-06-21 85.78 mins</title></rect><rect fill="#b8c6e0" height="4" rx="1" ry="1" width="4" x="139.60000000000005" y="46.699999999999996"><title>2024-06-22 20.13 mins</title></rect><rect fill="#bcc8e1" height="4" rx="1" ry="1" width="4" x="139.60000000000005" y="52.1"><title>2024-06-23 5.35 mins</title></rect><rect fill="#67abd0" height="4" rx="1" ry="1" width="4" x="145.00000000000006" y="19.7"><title>2024-06-24 71.2 mins</title></rect><rect fill="#67abd0" height="4" rx="1" ry="1" width="4" x="145.00000000000006" y="25.1"><title>2024-06-25 68.58 mins</title></rect><rect fill="#6eadcf" height="4" rx="1" ry="1" width="4" x="145.00000000000006" y="30.5"><title>2024-06-26 34.63 mins</title></rect><rect fill="#058cb0" height="4" rx="1" ry="1" width="4" x="145.00000000000006" y="35.9"><title>2024-06-27 84.43 mins</title></rect><rect fill="#bdc9e1" height="4" rx="1" ry="1" width="4" x="145.00000000000006" y="41.300000000000004"><title>2024-06-28 1.65 mins</title></rect><rect fill="#6daccf" height="4" rx="1" ry="1" width="4" x="145.00000000000006" y="46.699999999999996"><title>2024-06-29 39.35 mins</title></rect><rect fill="#b8c6e0" height="4" rx="1" ry="1" width="4" x="145.00000000000006" y="52.1"><title>2024-06-30 19.8 mins</title></rect><text fill="#000000" style="font-size:2.5px; font-family:Arial" x="150.40000000000006" y="18.3">Jul</text><rect fill="#b8c6e0" height="4" rx="1" ry="1" width="4" x="150.40000000000006" y="19.7"><title>2024-07-01 20.53 mins</title></rect><rect fill="#6baccf" height="4" rx="1" ry="1" width="4" x="150.40000000000006" y="25.1"><title>2024-07-02 46.82 mins</title></rect><rect fill="#f1eef6" height="4" rx="1" ry="1" width="4" x="150.40000000000006" y="30.5"><title>2024-07-03</title></rect><rect fill="#6fadcf" height="4" rx="1" ry="1" width="4" x="150.40000000000006" y="35.9"><title>2024-07-04 26.45 mins</title></rect><rect fill="#058cb0" height="4" rx="1" ry="1" width="4" x="150.40000000000006" y="41.300000000000004"><title>2024-07-05 80.98 mins</title></rect><rect fill="#6caccf" height="4" rx="1" ry="1" width="4" x="150.40000000000006" y="46.699999999999996"><title>2024-07-06 40.85 mins</title></rect><rect fill="#b9c7e0" height="4" rx="1" ry="1" width="4" x="150.40000000000006" y="52.1"><title>2024-07-07 15.4 mins</title></rect><rect fill="#bbc7e0" height="4" rx="1" ry="1" width="4" x="155.80000000000007" y="19.7"><title>2024-07-08 10.1 mins</title></rect><rect fill="#6caccf" height="4" rx="1" ry="1" width="4" x="155.80000000000007" y="25.1"><title>2024-07-09 42.98 mins</title></rect><rect fill="#bac7e0" height="4" rx="1" ry="1" width="4" x="155.80000000000007" y="30.5"><title>2024-07-10 14.08 mins</title></rect><rect fill="#bbc8e1" height="4" rx="1" ry="1" width="4" x="155.80000000000007" y="35.9"><title>2024-07-11 8.08 mins</title></rect><rect fill="#bdc9e1" height="4" rx="1" ry="1" width="4" x="155.80000000000007" y="41.300000000000004"><title>2024-07-12 0.65 mins</title></rect><rect fill="#bbc8e1" height="4" rx="1" ry="1" width="4" x="155.80000000000007" y="46.699999999999996"><title>2024-07-13 7.5 mins</title></rect><rect fill="#bac7e0" height="4" rx="1" ry="1" width="4" x="155.80000000000007" y="52.1"><title>2024-07-14 14.02 mins</title></rect><rect fill="#bcc9e1" height="4" rx="1" ry="1" width="4" x="161.20000000000007" y="19.7"><title>2024-07-15 2.22 mins</title></rect><rect fill="#f1eef6" height="4" rx="1" ry="1" width="4" x="161.20000000000007" y="25.1"><title>2024-07-16</title></rect><rect fill="#bdc9e1" height="4" rx="1" ry="1" width="4" x="161.20000000000007" y="30.5"><title>2024-07-17 0.05 mins</title></rect><rect fill="#bcc8e1" height="4" rx="1" ry="1" width="4" x="161.20000000000007" y="35.9"><title>2024-07-18 3.45 mins</title></rect><rect fill="#f1eef6" height="4" rx="1" ry="1" width="4" x="161.20000000000007" y="41.300000000000004"><title>2024-07-19</title></rect><rect fill="#f1eef6" height="4" rx="1" ry="1" width="4" x="161.20000000000007" y="46.699999999999996"><title>2024-07-20</title></rect><rect fill="#68abd0" height="4" rx="1" ry="1" width="4" x="161.20000000000007" y="52.1"><title>2024-07-21 66.17 mins</title></rect><rect fill="#f1eef6" height="4" rx="1" ry="1" width="4" x="166.60000000000008" y="19.7"><title>2024-07-22</title></rect><rect fill="#f1eef6" height="4" rx="1" ry="1" width="4" x="166.60000000000008" y="25.1"><title>2024-07-23</title></rect><rect fill="#bbc8e1" height="4" rx="1" ry="1" width="4" x="166.60000000000008" y="30.5"><title>2024-07-24 7.87 mins</title></rect><rect fill="#6fadcf" height="4" rx="1" ry="1" width="4" x="166.60000000000008" y="35.9"><title>2024-07-25 27.87 mins</title></rect><rect fill="#f1eef6" height="4" rx="1" ry="1" width="4" x="166.60000000000008" y="41.300000000000004"><title>2024-07-26</title></rect><rect fill="#f1eef6" height="4" rx="1" ry="1" width="4" x="166.60000000000008" y="46.699999999999996"><title>2024-07-27</title></rect><rect fill="#bdc9e1" height="4" rx="1" ry="1" width="4" x="166.60000000000008" y="52.1"><title>2024-07-28 0.07 mins</title></rect><rect fill="#f1eef6" height="4" rx="1" ry="1" width="4" x="172.00000000000009" y="19.7"><title>2024-07-29</title></rect><rect fill="#f1eef6" height="4" rx="1" ry="1" width="4" x="172.00000000000009" y="25.1"><title>2024-07-30</title></rect><rect fill="#f1eef6" height="4" rx="1" ry="1" width="4" x="172.00000000000009" y="30.5"><title>2024-07-31</title></rect><rect fill="#f1eef6" height="4" rx="1" ry="1" width="4" x="172.00000000000009" y="35.9"><title>2024-08-01</title></rect><rect fill="#f1eef6" height="4" rx="1" ry="1" width="4" x="172.00000000000009" y="41.300000000000004"><title>2024-08-02</title></rect><rect fill="#f1eef6" height="4" rx="1" ry="1" width="4" x="172.00000000000009" y="46.699999999999996"><title>2024-08-03</title></rect><rect fill="#f1eef6" height="4" rx="1" ry="1" width="4" x="172.00000000000009" y="52.1"><title>2024-08-04</title></rect><text fill="#000000" style="font-size:2.5px; font-family:Arial" x="177.4000000000001" y="18.3">Aug</text><rect fill="#f1eef6" height="4" rx="1" ry="1" width="4" x="177.4000000000001" y="19.7"><title>2024-08-05</title></rect><rect fill="#f1eef6" height="4" rx="1" ry="1" width="4" x="177.4000000000001" y="25.1"><title>2024-08-06</title></rect><rect fill="#058cb0" height="4" rx="1" ry="1" width="4" x="177.4000000000001" y="30.5"><title>2024-08-07 218.1 mins</title></rect><rect fill="#6eadcf" height="4" rx="1" ry="1" width="4" x="177.4000000000001" y="35.9"><title>2024-08-08 31.97 mins</title></rect><rect fill="#b9c6e0" height="4" rx="1" ry="1" width="4" x="177.4000000000001" y="41.300000000000004"><title>2024-08-09 18.93 mins</title></rect><rect fill="#b9c6e0" height="4" rx="1" ry="1" width="4" x="177.4000000000001" y="46.699999999999996"><title>2024-08-10 17.23 mins</title></rect><rect fill="#bcc8e1" height="4" rx="1" ry="1" width="4" x="177.4000000000001" y="52.1"><title>2024-08-11 5.5 mins</title></rect><rect fill="#b9c6e0" height="4" rx="1" ry="1" width="4" x="182.8000000000001" y="19.7"><title>2024-08-12 18.57 mins</title></rect><rect fill="#6baccf" height="4" rx="1" ry="1" width="4" x="182.8000000000001" y="25.1"><title>2024-08-13 47.3 mins</title></rect><rect fill="#f1eef6" height="4" rx="1" ry="1" width="4" x="182.8000000000001" y="30.5"><title>2024-08-14</title></rect><rect fill="#b9c7e0" height="4" rx="1" ry="1" width="4" x="182.8000000000001" y="35.9"><title>2024-08-15 15.82 mins</title></rect><rect fill="#b9c6e0" height="4" rx="1" ry="1" width="4" x="182.8000000000001" y="41.300000000000004"><title>2024-08-16 17.32 mins</title></rect><rect fill="#b8c6e0" height="4" rx="1" ry="1" width="4" x="182.8000000000001" y="46.699999999999996"><title>2024-08-17 23.17 mins</title></rect><rect fill="#bbc7e0" height="4" rx="1" ry="1" width="4" x="182.8000000000001" y="52.1"><title>2024-08-18 10.48 mins</title></rect><rect fill="#058cb0" height="4" rx="1" ry="1" width="4" x="188.2000000000001" y="19.7"><title>2024-08-19 284.82 mins</title></rect><rect fill="#058cb0" height="4" rx="1" ry="1" width="4" x="188.2000000000001" y="25.1"><title>2024-08-20 112.02 mins</title></rect><rect fill="#058cb0" height="4" rx="1" ry="1" width="4" x="188.2000000000001" y="30.5"><title>2024-08-21 103.68 mins</title></rect><rect fill="#058cb0" height="4" rx="1" ry="1" width="4" x="188.2000000000001" y="35.9"><title>2024-08-22 205.95 mins</title></rect><rect fill="#058cb0" height="4" rx="1" ry="1" width="4" x="188.2000000000001" y="41.300000000000004"><title>2024-08-23 132.17 mins</title></rect><rect fill="#bac7e0" height="4" rx="1" ry="1" width="4" x="188.2000000000001" y="46.699999999999996"><title>2024-08-24 11.42 mins</title></rect><rect fill="#bac7e0" height="4" rx="1" ry="1" width="4" x="188.2000000000001" y="52.1"><title>2024-08-25 13.87 mins</title></rect><rect fill="#f1eef6" height="4" rx="1" ry="1" width="4" x="193.6000000000001" y="19.7"><title>2024-08-26</title></rect><rect fill="#058cb0" height="4" rx="1" ry="1" width="4" x="193.6000000000001" y="25.1"><title>2024-08-27 282.5 mins</title></rect><rect fill="#6aacd0" height="4" rx="1" ry="1" width="4" x="193.6000000000001" y="30.5"><title>2024-08-28 54.2 mins</title></rect><rect fill="#bcc9e1" height="4" rx="1" ry="1" width="4" x="193.6000000000001" y="35.9"><title>2024-08-29 2.35 mins</title></rect><rect fill="#6fadcf" height="4" rx="1" ry="1" width="4" x="193.6000000000001" y="41.300000000000004"><title>2024-08-30 26.47 mins</title></rect><rect fill="#f1eef6" height="4" rx="1" ry="1" width="4" x="193.6000000000001" y="46.699999999999996"><title>2024-08-31</title></rect><rect fill="#bdc9e1" height="4" rx="1" ry="1" width="4" x="193.6000000000001" y="52.1"><title>2024-09-01 1.32 mins</title></rect><text fill="#000000" style="font-size:2.5px; font-family:Arial" x="199.0000000000001" y="18.3">Sep</text><rect fill="#bbc8e1" height="4" rx="1" ry="1" width="4" x="199.0000000000001" y="19.7"><title>2024-09-02 6.68 mins</title></rect><rect fill="#bac7e0" height="4" rx="1" ry="1" width="4" x="199.0000000000001" y="25.1"><title>2024-09-03 11.25 mins</title></rect><rect fill="#bdc9e1" height="4" rx="1" ry="1" width="4" x="199.0000000000001" y="30.5"><title>2024-09-04 0.97 mins</title></rect><rect fill="#bdc9e1" height="4" rx="1" ry="1" width="4" x="199.0000000000001" y="35.9"><title>2024-09-05 0.02 mins</title></rect><rect fill="#bbc7e0" height="4" rx="1" ry="1" width="4" x="199.0000000000001" y="41.300000000000004"><title>2024-09-06 10.6 mins</title></rect><rect fill="#bdc9e1" height="4" rx="1" ry="1" width="4" x="199.0000000000001" y="46.699999999999996"><title>2024-09-07 2.1 mins</title></rect><rect fill="#058cb0" height="4" rx="1" ry="1" width="4" x="199.0000000000001" y="52.1"><title>2024-09-08 105.17 mins</title></rect><rect fill="#bcc8e1" height="4" rx="1" ry="1" width="4" x="204.40000000000012" y="19.7"><title>2024-09-09 4.28 mins</title></rect><rect fill="#bac7e0" height="4" rx="1" ry="1" width="4" x="204.40000000000012" y="25.1"><title>2024-09-10 14.3 mins</title></rect><rect fill="#f1eef6" height="4" rx="1" ry="1" width="4" x="204.40000000000012" y="30.5"><title>2024-09-11</title></rect><rect fill="#f1eef6" height="4" rx="1" ry="1" width="4" x="204.40000000000012" y="35.9"><title>2024-09-12</title></rect><rect fill="#f1eef6" height="4" rx="1" ry="1" width="4" x="204.40000000000012" y="41.300000000000004"><title>2024-09-13</title></rect><rect fill="#f1eef6" height="4" rx="1" ry="1" width="4" x="204.40000000000012" y="46.699999999999996"><title>2024-09-14</title></rect><rect fill="#f1eef6" height="4" rx="1" ry="1" width="4" x="204.40000000000012" y="52.1"><title>2024-09-15</title></rect><rect fill="#f1eef6" height="4" rx="1" ry="1" width="4" x="209.80000000000013" y="19.7"><title>2024-09-16</title></rect><rect fill="#f1eef6" height="4" rx="1" ry="1" width="4" x="209.80000000000013" y="25.1"><title>2024-09-17</title></rect><rect fill="#f1eef6" height="4" rx="1" ry="1" width="4" x="209.80000000000013" y="30.5"><title>2024-09-18</title></rect><rect fill="#f1eef6" height="4" rx="1" ry="1" width="4" x="209.80000000000013" y="35.9"><title>2024-09-19</title></rect><rect fill="#f1eef6" height="4" rx="1" ry="1" width="4" x="209.80000000000013" y="41.300000000000004"><title>2024-09-20</title></rect><rect fill="#f1eef6" height="4" rx="1" ry="1" width="4" x="209.80000000000013" y="46.699999999999996"><title>2024-09-21</title></rect><rect fill="#f1eef6" height="4" rx="1" ry="1" width="4" x="209.80000000000013" y="52.1"><title>2024-09-22</title></rect><rect fill="#f1eef6" height="4" rx="1" ry="1" width="4" x="215.20000000000013" y="19.7"><title>2024-09-23</title></rect><rect fill="#f1eef6" height="4" rx="1" ry="1" width="4" x="215.20000000000013" y="25.1"><title>2024-09-24</title></rect><rect fill="#f1eef6" height="4" rx="1" ry="1" width="4" x="215.20000000000013" y="30.5"><title>2024-09-25</title></rect><rect fill="#f1eef6" height="4" rx="1" ry="1" width="4" x="215.20000000000013" y="35.9"><title>2024-09-26</title></rect><rect fill="#f1eef6" height="4" rx="1" ry="1" width="4" x="215.20000000000013" y="41.300000000000004"><title>2024-09-27</title></rect><rect fill="#f1eef6" height="4" rx="1" ry="1" width="4" x="215.20000000000013" y="46.699999999999996"><title>2024-09-28</title></rect><rect fill="#f1eef6" height="4" rx="1" ry="1" width="4" x="215.20000000000013" y="52.1"><title>2024-09-29</title></rect><rect fill="#f1eef6" height="4" rx="1" ry="1" width="4" x="220.60000000000014" y="19.7"><title>2024-09-30</title></rect><rect fill="#f1eef6" height="4" rx="1" ry="1" width="4" x="220.60000000000014" y="25.1"><title>2024-10-01</title></rect><rect fill="#f1eef6" height="4" rx="1" ry="1" width="4" x="220.60000000000014" y="30.5"><title>2024-10-02</title></rect><rect fill="#f1eef6" height="4" rx="1" ry="1" width="4" x="220.60000000000014" y="35.9"><title>2024-10-03</title></rect><rect fill="#f1eef6" height="4" rx="1" ry="1" width="4" x="220.60000000000014" y="41.300000000000004"><title>2024-10-04</title></rect><rect fill="#f1eef6" height="4" rx="1" ry="1" width="4" x="220.60000000000014" y="46.699999999999996"><title>2024-10-05</title></rect><rect fill="#f1eef6" height="4" rx="1" ry="1" width="4" x="220.60000000000014" y="52.1"><title>2024-10-06</title></rect><text fill="#000000" style="font-size:2.5px; font-family:Arial" x="226.00000000000014" y="18.3">Oct</text><rect fill="#f1eef6" height="4" rx="1" ry="1" width="4" x="226.00000000000014" y="19.7"><title>2024-10-07</title></rect><rect fill="#f1eef6" height="4" rx="1" ry="1" width="4" x="226.00000000000014" y="25.1"><title>2024-10-08</title></rect><rect fill="#f1eef6" height="4" rx="1" ry="1" width="4" x="226.00000000000014" y="30.5"><title>2024-10-09</title></rect><rect fill="#f1eef6" height="4" rx="1" ry="1" width="4" x="226.00000000000014" y="35.9"><title>2024-10-10</title></rect><rect fill="#f1eef6" height="4" rx="1" ry="1" width="4" x="226.00000000000014" y="41.300000000000004"><title>2024-10-11</title></rect><rect fill="#f1eef6" height="4" rx="1" ry="1" width="4" x="226.00000000000014" y="46.699999999999996"><title>2024-10-12</title></rect><rect fill="#f1eef6" height="4" rx="1" ry="1" width="4" x="226.00000000000014" y="52.1"><title>2024-10-13</title></rect><rect fill="#f1eef6" height="4" rx="1" ry="1" width="4" x="231.40000000000015" y="19.7"><title>2024-10-14</title></rect><rect fill="#f1eef6" height="4" rx="1" ry="1" width="4" x="231.40000000000015" y="25.1"><title>2024-10-15</title></rect><rect fill="#f1eef6" height="4" rx="1" ry="1" width="4" x="231.40000000000015" y="30.5"><title>2024-10-16</title></rect><rect fill="#f1eef6" height="4" rx="1" ry="1" width="4" x="231.40000000000015" y="35.9"><title>2024-10-17</title></rect><rect fill="#f1eef6" height="4" rx="1" ry="1" width="4" x="231.40000000000015" y="41.300000000000004"><title>2024-10-18</title></rect><rect fill="#f1eef6" height="4" rx="1" ry="1" width="4" x="231.40000000000015" y="46.699999999999996"><title>2024-10-19</title></rect><rect fill="#f1eef6" height="4" rx="1" ry="1" width="4" x="231.40000000000015" y="52.1"><title>2024-10-20</title></rect><rect fill="#f1eef6" height="4" rx="1" ry="1" width="4" x="236.80000000000015" y="19.7"><title>2024-10-21</title></rect><rect fill="#f1eef6" height="4" rx="1" ry="1" width="4" x="236.80000000000015" y="25.1"><title>2024-10-22</title></rect><rect fill="#f1eef6" height="4" rx="1" ry="1" width="4" x="236.80000000000015" y="30.5"><title>2024-10-23</title></rect><rect fill="#f1eef6" height="4" rx="1" ry="1" width="4" x="236.80000000000015" y="35.9"><title>2024-10-24</title></rect><rect fill="#f1eef6" height="4" rx="1" ry="1" width="4" x="236.80000000000015" y="41.300000000000004"><title>2024-10-25</title></rect><rect fill="#f1eef6" height="4" rx="1" ry="1" width="4" x="236.80000000000015" y="46.699999999999996"><title>2024-10-26</title></rect><rect fill="#f1eef6" height="4" rx="1" ry="1" width="4" x="236.80000000000015" y="52.1"><title>2024-10-27</title></rect><rect fill="#f1eef6" height="4" rx="1" ry="1" width="4" x="242.20000000000016" y="19.7"><title>2024-10-28</title></rect><rect fill="#f1eef6" height="4" rx="1" ry="1" width="4" x="242.20000000000016" y="25.1"><title>2024-10-29</title></rect><rect fill="#f1eef6" height="4" rx="1" ry="1" width="4" x="242.20000000000016" y="30.5"><title>2024-10-30</title></rect><rect fill="#f1eef6" height="4" rx="1" ry="1" width="4" x="242.20000000000016" y="35.9"><title>2024-10-31</title></rect><rect fill="#f1eef6" height="4" rx="1" ry="1" width="4" x="242.20000000000016" y="41.300000000000004"><title>2024-11-01</title></rect><rect fill="#f1eef6" height="4" rx="1" ry="1" width="4" x="242.20000000000016" y="46.699999999999996"><title>2024-11-02</title></rect><rect fill="#f1eef6" height="4" rx="1" ry="1" width="4" x="242.20000000000016" y="52.1"><title>2024-11-03</title></rect><text fill="#000000" style="font-size:2.5px; font-family:Arial" x="247.60000000000016" y="18.3">Nov</text><rect fill="#f1eef6" height="4" rx="1" ry="1" width="4" x="247.60000000000016" y="19.7"><title>2024-11-04</title></rect><rect fill="#f1eef6" height="4" rx="1" ry="1" width="4" x="247.60000000000016" y="25.1"><title>2024-11-05</title></rect><rect fill="#f1eef6" height="4" rx="1" ry="1" width="4" x="247.60000000000016" y="30.5"><title>2024-11-06</title></rect><rect fill="#f1eef6" height="4" rx="1" ry="1" width="4" x="247.60000000000016" y="35.9"><title>2024-11-07</title></rect><rect fill="#f1eef6" height="4" rx="1" ry="1" width="4" x="247.60000000000016" y="41.300000000000004"><title>2024-11-08</title></rect><rect fill="#f1eef6" height="4" rx="1" ry="1" width="4" x="247.60000000000016" y="46.699999999999996"><title>2024-11-09</title></rect><rect fill="#f1eef6" height="4" rx="1" ry="1" width="4" x="247.60000000000016" y="52.1"><title>2024-11-10</title></rect><rect fill="#f1eef6" height="4" rx="1" ry="1" width="4" x="253.00000000000017" y="19.7"><title>2024-11-11</title></rect><rect fill="#f1eef6" height="4" rx="1" ry="1" width="4" x="253.00000000000017" y="25.1"><title>2024-11-12</title></rect><rect fill="#f1eef6" height="4" rx="1" ry="1" width="4" x="253.00000000000017" y="30.5"><title>2024-11-13</title></rect><rect fill="#f1eef6" height="4" rx="1" ry="1" width="4" x="253.00000000000017" y="35.9"><title>2024-11-14</title></rect><rect fill="#f1eef6" height="4" rx="1" ry="1" width="4" x="253.00000000000017" y="41.300000000000004"><title>2024-11-15</title></rect><rect fill="#f1eef6" height="4" rx="1" ry="1" width="4" x="253.00000000000017" y="46.699999999999996"><title>2024-11-16</title></rect><rect fill="#f1eef6" height="4" rx="1" ry="1" width="4" x="253.00000000000017" y="52.1"><title>2024-11-17</title></rect><rect fill="#f1eef6" height="4" rx="1" ry="1" width="4" x="258.40000000000015" y="19.7"><title>2024-11-18</title></rect><rect fill="#f1eef6" height="4" rx="1" ry="1" width="4" x="258.40000000000015" y="25.1"><title>2024-11-19</title></rect><rect fill="#f1eef6" height="4" rx="1" ry="1" width="4" x="258.40000000000015" y="30.5"><title>2024-11-20</title></rect><rect fill="#f1eef6" height="4" rx="1" ry="1" width="4" x="258.40000000000015" y="35.9"><title>2024-11-21</title></rect><rect fill="#f1eef6" height="4" rx="1" ry="1" width="4" x="258.40000000000015" y="41.300000000000004"><title>2024-11-22</title></rect><rect fill="#f1eef6" height="4" rx="1" ry="1" width="4" x="258.40000000000015" y="46.699999999999996"><title>2024-11-23</title></rect><rect fill="#f1eef6" height="4" rx="1" ry="1" width="4" x="258.40000000000015" y="52.1"><title>2024-11-24</title></rect><rect fill="#f1eef6" height="4" rx="1" ry="1" width="4" x="263.8000000000001" y="19.7"><title>2024-11-25</title></rect><rect fill="#f1eef6" height="4" rx="1" ry="1" width="4" x="263.8000000000001" y="25.1"><title>2024-11-26</title></rect><rect fill="#f1eef6" height="4" rx="1" ry="1" width="4" x="263.8000000000001" y="30.5"><title>2024-11-27</title></rect><rect fill="#f1eef6" height="4" rx="1" ry="1" width="4" x="263.8000000000001" y="35.9"><title>2024-11-28</title></rect><rect fill="#f1eef6" height="4" rx="1" ry="1" width="4" x="263.8000000000001" y="41.300000000000004"><title>2024-11-29</title></rect><rect fill="#f1eef6" height="4" rx="1" ry="1" width="4" x="263.8000000000001" y="46.699999999999996"><title>2024-11-30</title></rect><rect fill="#f1eef6" height="4" rx="1" ry="1" width="4" x="263.8000000000001" y="52.1"><title>2024-12-01</title></rect><text fill="#000000" style="font-size:2.5px; font-family:Arial" x="269.2000000000001" y="18.3">Dec</text><rect fill="#f1eef6" height="4" rx="1" ry="1" width="4" x="269.2000000000001" y="19.7"><title>2024-12-02</title></rect><rect fill="#f1eef6" height="4" rx="1" ry="1" width="4" x="269.2000000000001" y="25.1"><title>2024-12-03</title></rect><rect fill="#f1eef6" height="4" rx="1" ry="1" width="4" x="269.2000000000001" y="30.5"><title>2024-12-04</title></rect><rect fill="#f1eef6" height="4" rx="1" ry="1" width="4" x="269.2000000000001" y="35.9"><title>2024-12-05</title></rect><rect fill="#f1eef6" height="4" rx="1" ry="1" width="4" x="269.2000000000001" y="41.300000000000004"><title>2024-12-06</title></rect><rect fill="#f1eef6" height="4" rx="1" ry="1" width="4" x="269.2000000000001" y="46.699999999999996"><title>2024-12-07</title></rect><rect fill="#f1eef6" height="4" rx="1" ry="1" width="4" x="269.2000000000001" y="52.1"><title>2024-12-08</title></rect><rect fill="#f1eef6" height="4" rx="1" ry="1" width="4" x="274.6000000000001" y="19.7"><title>2024-12-09</title></rect><rect fill="#f1eef6" height="4" rx="1" ry="1" width="4" x="274.6000000000001" y="25.1"><title>2024-12-10</title></rect><rect fill="#f1eef6" height="4" rx="1" ry="1" width="4" x="274.6000000000001" y="30.5"><title>2024-12-11</title></rect><rect fill="#f1eef6" height="4" rx="1" ry="1" width="4" x="274.6000000000001" y="35.9"><title>2024-12-12</title></rect><rect fill="#f1eef6" height="4" rx="1" ry="1" width="4" x="274.6000000000001" y="41.300000000000004"><title>2024-12-13</title></rect><rect fill="#f1eef6" height="4" rx="1" ry="1" width="4" x="274.6000000000001" y="46.699999999999996"><title>2024-12-14</title></rect><rect fill="#f1eef6" height="4" rx="1" ry="1" width="4" x="274.6000000000001" y="52.1"><title>2024-12-15</title></rect><rect fill="#f1eef6" height="4" rx="1" ry="1" width="4" x="280.00000000000006" y="19.7"><title>2024-12-16</title></rect><rect fill="#f1eef6" height="4" rx="1" ry="1" width="4" x="280.00000000000006" y="25.1"><title>2024-12-17</title></rect><rect fill="#f1eef6" height="4" rx="1" ry="1" width="4" x="280.00000000000006" y="30.5"><title>2024-12-18</title></rect><rect fill="#f1eef6" height="4" rx="1" ry="1" width="4" x="280.00000000000006" y="35.9"><title>2024-12-19</title></rect><rect fill="#f1eef6" height="4" rx="1" ry="1" width="4" x="280.00000000000006" y="41.300000000000004"><title>2024-12-20</title></rect><rect fill="#f1eef6" height="4" rx="1" ry="1" width="4" x="280.00000000000006" y="46.699999999999996"><title>2024-12-21</title></rect><rect fill="#f1eef6" height="4" rx="1" ry="1" width="4" x="280.00000000000006" y="52.1"><title>2024-12-22</title></rect><rect fill="#f1eef6" height="4" rx="1" ry="1" width="4" x="285.40000000000003" y="19.7"><title>2024-12-23</title></rect><rect fill="#f1eef6" height="4" rx="1" ry="1" width="4" x="285.40000000000003" y="25.1"><title>2024-12-24</title></rect><rect fill="#f1eef6" height="4" rx="1" ry="1" width="4" x="285.40000000000003" y="30.5"><title>2024-12-25</title></rect><rect fill="#f1eef6" height="4" rx="1" ry="1" width="4" x="285.40000000000003" y="35.9"><title>2024-12-26</title></rect><rect fill="#f1eef6" height="4" rx="1" ry="1" width="4" x="285.40000000000003" y="41.300000000000004"><title>2024-12-27</title></rect><rect fill="#f1eef6" height="4" rx="1" ry="1" width="4" x="285.40000000000003" y="46.699999999999996"><title>2024-12-28</title></rect><rect fill="#f1eef6" height="4" rx="1" ry="1" width="4" x="285.40000000000003" y="52.1"><title>2024-12-29</title></rect><rect fill="#f1eef6" height="4" rx="1" ry="1" width="4" x="290.8" y="19.7"><title>2024-12-30</title></rect><rect fill="#f1eef6" height="4" rx="1" ry="1" width="4" x="290.8" y="25.1"><title>2024-12-31</title></rect></svg>