<?xml version="1.0" encoding="utf-8" ?>
<svg baseProfile="full" height="48mm" version="1.1" viewBox="0,0,200,48" width="200mm" xmlns="http://www.w3.org/2000/svg" xmlns:ev="http://www.w3.org/2001/xml-events" xmlns:xlink="http://www.w3.org/1999/xlink"><defs /><rect fill="#FFFFFF" height="48" width="200" x="0" y="0" /><text fill="#000000" style="font-size:6px; font-family:Arial; font-weight:bold;" x="10" y="10">Reading Track</text><text dominant-baseline="hanging" fill="#000000" style="font-size:3.0px; font-family:Arial;" x="10" y="14">2024: 106 hours</text><text fill="#000000" style="font-size:2.5px; font-family:Arial" x="10.0" y="21.0">Jan</text><text fill="#000000" style="font-size:2.5px; font-family:Arial" x="25.5" y="21.0">Feb</text><text fill="#000000" style="font-size:2.5px; font-family:Arial" x="41.0" y="21.0">Mar</text><text fill="#000000" style="font-size:2.5px; font-family:Arial" x="56.5" y="21.0">Apr</text><text fill="#000000" style="font-size:2.5px; font-family:Arial" x="72.0" y="21.0">May</text><text fill="#000000" style="font-size:2.5px; font-family:Arial" x="87.5" y="21.0">Jun</text><text fill="#000000" style="font-size:2.5px; font-family:Arial" x="103.0" y="21.0">Jul</text><text fill="#000000" style="font-size:2.5px; font-family:Arial" x="118.5" y="21.0">Aug</text><text fill="#000000" style="font-size:2.5px; font-family:Arial" x="134.0" y="21.0">Sep</text><text fill="#000000" style="font-size:2.5px; font-family:Arial" x="149.5" y="21.0">Oct</text><text fill="#000000" style="font-size:2.5px; font-family:Arial" x="165.0" y="21.0">Nov</text><text fill="#000000" style="font-size:2.5px; font-family:Arial" x="180.5" y="21.0">Dec</text><rect fill="#4a9ba1" height="2.6" rx="0.4" ry="0.4" width="2.6" x="10.0" y="22.5"><title>2024-01-01 82.22 mins</title></rect><rect fill="#4a9ba1" height="2.6" rx="0.4" ry="0.4" width="2.6" x="10.0" y="26.0"><title>2024-01-02 119.77 mins</title></rect><rect fill="#4a9ba1" height="2.6" rx="0.4" ry="0.4" width="2.6" x="10.0" y="29.5"><title>2024-01-03 87.02 mins</title></rect><rect fill="#4a9ba1" height="2.6" rx="0.4" ry="0.4" width="2.6" x="10.0" y="33.0"><title>2024-01-04 99.72 mins</title></rect><rect fill="#6ab7df" height="2.6" rx="0.4" ry="0.4" width="2.6" x="10.0" y="36.5"><title>2024-01-05 32.42 mins</title></rect><rect fill="#b0c9ed" height="2.6" rx="0.4" ry="0.4" width="2.6" x="10.0" y="40.0"><title>2024-01-06 13.63 mins</title></rect><rect fill="#67b6dc" height="2.6" rx="0.4" ry="0.4" width="2.6" x="10.0" y="43.5"><title>2024-01-07 68.62 mins</title></rect><rect fill="#afc8ec" height="2.6" rx="0.4" ry="0.4" width="2.6" x="13.5" y="22.5"><title>2024-01-08 19.78 mins</title></rect><rect fill="#67b6dc" height="2.6" rx="0.4" ry="0.4" width="2.6" x="13.5" y="26.0"><title>2024-01-09 64.72 mins</title></rect><rect fill="#4a9ba1" height="2.6" rx="0.4" ry="0.4" width="2.6" x="13.5" y="29.5"><title>2024-01-10 72.47 mins</title></rect><rect fill="#4a9ba1" height="2.6" rx="0.4" ry="0.4" width="2.6" x="13.5" y="33.0"><title>2024-01-11 120.22 mins</title></rect><rect fill="#6bb7df" height="2.6" rx="0.4" ry="0.4" width="2.6" x="13.5" y="36.5"><title>2024-01-12 31.3 mins</title></rect><rect fill="#afc9ec" height="2.6" rx="0.4" ry="0.4" width="2.6" x="13.5" y="40.0"><title>2024-01-13 18.87 mins</title></rect><rect fill="#4a9ba1" height="2.6" rx="0.4" ry="0.4" width="2.6" x="13.5" y="43.5"><title>2024-01-14 72.43 mins</title></rect><rect fill="#4a9ba1" height="2.6" rx="0.4" ry="0.4" width="2.6" x="17.0" y="22.5"><title>2024-01-15 131.18 mins</title></rect><rect fill="#b3cbee" height="2.6" rx="0.4" ry="0.4" width="2.6" x="17.0" y="26.0"><title>2024-01-16 2.37 mins</title></rect><rect fill="#4a9ba1" height="2.6" rx="0.4" ry="0.4" width="2.6" x="17.0" y="29.5"><title>2024-01-17 82.52 mins</title></rect><rect fill="#67b6dd" height="2.6" rx="0.4" ry="0.4" width="2.6" x="17.0" y="33.0"><title>2024-01-18 63.37 mins</title></rect><rect fill="#6bb7e0" height="2.6" rx="0.4" ry="0.4" width="2.6" x="17.0" y="36.5"><title>2024-01-19 26.52 mins</title></rect><rect fill="#4a9ba1" height="2.6" rx="0.4" ry="0.4" width="2.6" x="17.0" y="40.0"><title>2024-01-20 207.72 mins</title></rect><rect fill="#6bb7df" height="2.6" rx="0.4" ry="0.4" width="2.6" x="17.0" y="43.5"><title>2024-01-21 30.8 mins</title></rect><rect fill="#4a9ba1" height="2.6" rx="0.4" ry="0.4" width="2.6" x="20.5" y="22.5"><title>2024-01-22 87.53 mins</title></rect><rect fill="#b2caed" height="2.6" rx="0.4" ry="0.4" width="2.6" x="20.5" y="26.0"><title>2024-01-23 7.13 mins</title></rect><rect fill="#4a9ba1" height="2.6" rx="0.4" ry="0.4" width="2.6" x="20.5" y="29.5"><title>2024-01-24 103.27 mins</title></rect><rect fill="#6ab7df" height="2.6" rx="0.4" ry="0.4" width="2.6" x="20.5" y="33.0"><title>2024-01-25 34.98 mins</title></rect><rect fill="#4a9ba1" height="2.6" rx="0.4" ry="0.4" width="2.6" x="20.5" y="36.5"><title>2024-01-26 89.62 mins</title></rect><rect fill="#b0c9ed" height="2.6" rx="0.4" ry="0.4" width="2.6" x="20.5" y="40.0"><title>2024-01-27 15.5 mins</title></rect><rect fill="#68b6dd" height="2.6" rx="0.4" ry="0.4" width="2.6" x="20.5" y="43.5"><title>2024-01-28 55.78 mins</title></rect><rect fill="#b2caed" height="2.6" rx="0.4" ry="0.4" width="2.6" x="24.0" y="22.5"><title>2024-01-29 8.87 mins</title></rect><rect fill="#69b7de" height="2.6" rx="0.4" ry="0.4" width="2.6" x="24.0" y="26.0"><title>2024-01-30 41.72 mins</title></rect><rect fill="#b1caed" height="2.6" rx="0.4" ry="0.4" width="2.6" x="24.0" y="29.5"><title>2024-01-31 9.58 mins</title></rect><rect fill="#4a9ba1" height="2.6" rx="0.4" ry="0.4" width="2.6" x="24.0" y="33.0"><title>2024-02-01 90.93 mins</title></rect><rect fill="#4a9ba1" height="2.6" rx="0.4" ry="0.4" width="2.6" x="24.0" y="36.5"><title>2024-02-02 79.52 mins</title></rect><rect fill="#b0c9ed" height="2.6" rx="0.4" ry="0.4" width="2.6" x="24.0" y="40.0"><title>2024-02-03 14.37 mins</title></rect><rect fill="#b3cbee" height="2.6" rx="0.4" ry="0.4" width="2.6" x="24.0" y="43.5"><title>2024-02-04 2.68 mins</title></rect><rect fill="#69b7de" height="2.6" rx="0.4" ry="0.4" width="2.6" x="27.5" y="22.5"><title>2024-02-05 44.9 mins</title></rect><rect fill="#b2caed" height="2.6" rx="0.4" ry="0.4" width="2.6" x="27.5" y="26.0"><title>2024-02-06 8.77 mins</title></rect><rect fill="#67b6dc" height="2.6" rx="0.4" ry="0.4" width="2.6" x="27.5" y="29.5"><title>2024-02-07 64.38 mins</title></rect><rect fill="#b4cbee" height="2.6" rx="0.4" ry="0.4" width="2.6" x="27.5" y="33.0"><title>2024-02-08 1.2 mins</title></rect><rect fill="#6ab7df" height="2.6" rx="0.4" ry="0.4" width="2.6" x="27.5" y="36.5"><title>2024-02-09 36.87 mins</title></rect><rect fill="#4a9ba1" height="2.6" rx="0.4" ry="0.4" width="2.6" x="27.5" y="40.0"><title>2024-02-10 107.3 mins</title></rect><rect fill="#4a9ba1" height="2.6" rx="0.4" ry="0.4" width="2.6" x="27.5" y="43.5"><title>2024-02-11 101.35 mins</title></rect><rect fill="#4a9ba1" height="2.6" rx="0.4" ry="0.4" width="2.6" x="31.0" y="22.5"><title>2024-02-12 167.0 mins</title></rect><rect fill="#4a9ba1" height="2.6" rx="0.4" ry="0.4" width="2.6" x="31.0" y="26.0"><title>2024-02-13 159.2 mins</title></rect><rect fill="#4a9ba1" height="2.6" rx="0.4" ry="0.4" width="2.6" x="31.0" y="29.5"><title>2024-02-14 156.32 mins</title></rect><rect fill="#FBF4F9" height="2.6" rx="0.4" ry="0.4" width="2.6" x="31.0" y="33.0"><title>2024-02-15</title></rect><rect fill="#66b6dc" height="2.6" rx="0.4" ry="0.4" width="2.6" x="31.0" y="36.5"><title>2024-02-16 69.75 mins</title></rect><rect fill="#6bb7df" height="2.6" rx="0.4" ry="0.4" width="2.6" x="31.0" y="40.0"><title>2024-02-17 30.77 mins</title></rect><rect fill="#69b7de" height="2.6" rx="0.4" ry="0.4" width="2.6" x="31.0" y="43.5"><title>2024-02-18 48.85 mins</title></rect><rect fill="#b1c9ed" height="2.6" rx="0.4" ry="0.4" width="2.6" x="34.5" y="22.5"><title>2024-02-19 11.98 mins</title></rect><rect fill="#4a9ba1" height="2.6" rx="0.4" ry="0.4" width="2.6" x="34.5" y="26.0"><title>2024-02-20 115.6 mins</title></rect><rect fill="#4a9ba1" height="2.6" rx="0.4" ry="0.4" width="2.6" x="34.5" y="29.5"><title>2024-02-21 84.17 mins</title></rect><rect fill="#4a9ba1" height="2.6" rx="0.4" ry="0.4" width="2.6" x="34.5" y="33.0"><title>2024-02-22 367.7 mins</title></rect><rect fill="#b4cbee" height="2.6" rx="0.4" ry="0.4" width="2.6" x="34.5" y="36.5"><title>2024-02-23 1.47 mins</title></rect><rect fill="#4a9ba1" height="2.6" rx="0.4" ry="0.4" width="2.6" x="34.5" y="40.0"><title>2024-02-24 255.03 mins</title></rect><rect fill="#68b6dd" height="2.6" rx="0.4" ry="0.4" width="2.6" x="34.5" y="43.5"><title>2024-02-25 56.4 mins</title></rect><rect fill="#b3caee" height="2.6" rx="0.4" ry="0.4" width="2.6" x="38.0" y="22.5"><title>2024-02-26 3.8 mins</title></rect><rect fill="#b1caed" height="2.6" rx="0.4" ry="0.4" width="2.6" x="38.0" y="26.0"><title>2024-02-27 11.1 mins</title></rect><rect fill="#b4cbee" height="2.6" rx="0.4" ry="0.4" width="2.6" x="38.0" y="29.5"><title>2024-02-28 1.8 mins</title></rect><rect fill="#4a9ba1" height="2.6" rx="0.4" ry="0.4" width="2.6" x="38.0" y="33.0"><title>2024-02-29 77.9 mins</title></rect><rect fill="#4a9ba1" height="2.6" rx="0.4" ry="0.4" width="2.6" x="38.0" y="36.5"><title>2024-03-01 85.02 mins</title></rect><rect fill="#69b7df" height="2.6" rx="0.4" ry="0.4" width="2.6" x="38.0" y="40.0"><title>2024-03-02 41.08 mins</title></rect><rect fill="#b3caee" height="2.6" rx="0.4" ry="0.4" width="2.6" x="38.0" y="43.5"><title>2024-03-03 3.83 mins</title></rect><rect fill="#67b6dd" height="2.6" rx="0.4" ry="0.4" width="2.6" x="41.5" y="22.5"><title>2024-03-04 62.9 mins</title></rect><rect fill="#6bb7df" height="2.6" rx="0.4" ry="0.4" width="2.6" x="41.5" y="26.0"><title>2024-03-05 29.95 mins</title></rect><rect fill="#67b6dd" height="2.6" rx="0.4" ry="0.4" width="2.6" x="41.5" y="29.5"><title>2024-03-06 60.98 mins</title></rect><rect fill="#FBF4F9" height="2.6" rx="0.4" ry="0.4" width="2.6" x="41.5" y="33.0"><title>2024-03-07</title></rect><rect fill="#afc9ec" height="2.6" rx="0.4" ry="0.4" width="2.6" x="41.5" y="36.5"><title>2024-03-08 18.75 mins</title></rect><rect fill="#67b6dd" height="2.6" rx="0.4" ry="0.4" width="2.6" x="41.5" y="40.0"><title>2024-03-09 60.42 mins</title></rect><rect fill="#b3caee" height="2.6" rx="0.4" ry="0.4" width="2.6" x="41.5" y="43.5"><title>2024-03-10 4.4 mins</title></rect><rect fill="#68b7de" height="2.6" rx="0.4" ry="0.4" width="2.6" x="45.0" y="22.5"><title>2024-03-11 50.58 mins</title></rect><rect fill="#4a9ba1" height="2.6" rx="0.4" ry="0.4" width="2.6" x="45.0" y="26.0"><title>2024-03-12 188.53 mins</title></rect><rect fill="#4a9ba1" height="2.6" rx="0.4" ry="0.4" width="2.6" x="45.0" y="29.5"><title>2024-03-13 353.33 mins</title></rect><rect fill="#4a9ba1" height="2.6" rx="0.4" ry="0.4" width="2.6" x="45.0" y="33.0"><title>2024-03-14 111.38 mins</title></rect><rect fill="#6ab7df" height="2.6" rx="0.4" ry="0.4" width="2.6" x="45.0" y="36.5"><title>2024-03-15 35.45 mins</title></rect><rect fill="#6ab7df" height="2.6" rx="0.4" ry="0.4" width="2.6" x="45.0" y="40.0"><title>2024-03-16 32.85 mins</title></rect><rect fill="#4a9ba1" height="2.6" rx="0.4" ry="0.4" width="2.6" x="45.0" y="43.5"><title>2024-03-17 99.58 mins</title></rect><rect fill="#4a9ba1" height="2.6" rx="0.4" ry="0.4" width="2.6" x="48.5" y="22.5"><title>2024-03-18 360.8 mins</title></rect><rect fill="#4a9ba1" height="2.6" rx="0.4" ry="0.4" width="2.6" x="48.5" y="26.0"><title>2024-03-19 90.4 mins</title></rect><rect fill="#6ab7df" height="2.6" rx="0.4" ry="0.4" width="2.6" x="48.5" y="29.5"><title>2024-03-20 32.67 mins</title></rect><rect fill="#afc9ec" height="2.6" rx="0.4" ry="0.4" width="2.6" x="48.5" y="33.0"><title>2024-03-21 17.53 mins</title></rect><rect fill="#b0c9ed" height="2.6" rx="0.4" ry="0.4" width="2.6" x="48.5" y="36.5"><title>2024-03-22 14.38 mins</title></rect><rect fill="#6bb7df" height="2.6" rx="0.4" ry="0.4" width="2.6" x="48.5" y="40.0"><title>2024-03-23 30.22 mins</title></rect><rect fill="#4a9ba1" height="2.6" rx="0.4" ry="0.4" width="2.6" x="48.5" y="43.5"><title>2024-03-24 102.18 mins</title></rect><rect fill="#6ab7df" height="2.6" rx="0.4" ry="0.4" width="2.6" x="52.0" y="22.5"><title>2024-03-25 32.9 mins</title></rect><rect fill="#69b7de" height="2.6" rx="0.4" ry="0.4" width="2.6" x="52.0" y="26.0"><title>2024-03-26 48.12 mins</title></rect><rect fill="#6ab7df" height="2.6" rx="0.4" ry="0.4" width="2.6" x="52.0" y="29.5"><title>2024-03-27 35.15 mins</title></rect><rect fill="#6ab7df" height="2.6" rx="0.4" ry="0.4" width="2.6" x="52.0" y="33.0"><title>2024-03-28 39.65 mins</title></rect><rect fill="#b1c9ed" height="2.6" rx="0.4" ry="0.4" width="2.6" x="52.0" y="36.5"><title>2024-03-29 12.02 mins</title></rect><rect fill="#68b6dd" height="2.6" rx="0.4" ry="0.4" width="2.6" x="52.0" y="40.0"><title>2024-03-30 59.02 mins</title></rect><rect fill="#69b7de" height="2.6" rx="0.4" ry="0.4" width="2.6" x="52.0" y="43.5"><title>2024-03-31 45.35 mins</title></rect><rect fill="#6bb7e0" height="2.6" rx="0.4" ry="0.4" width="2.6" x="55.5" y="22.5"><title>2024-04-01 29.43 mins</title></rect><rect fill="#b1c9ed" height="2.6" rx="0.4" ry="0.4" width="2.6" x="55.5" y="26.0"><title>2024-04-02 11.45 mins</title></rect><rect fill="#68b7de" height="2.6" rx="0.4" ry="0.4" width="2.6" x="55.5" y="29.5"><title>2024-04-03 50.65 mins</title></rect><rect fill="#aec8ec" height="2.6" rx="0.4" ry="0.4" width="2.6" x="55.5" y="33.0"><title>2024-04-04 23.22 mins</title></rect><rect fill="#67b6dc" height="2.6" rx="0.4" ry="0.4" width="2.6" x="55.5" y="36.5"><title>2024-04-05 68.3 mins</title></rect><rect fill="#b4cbee" height="2.6" rx="0.4" ry="0.4" width="2.6" x="55.5" y="40.0"><title>2024-04-06 0.1 mins</title></rect><rect fill="#FBF4F9" height="2.6" rx="0.4" ry="0.4" width="2.6" x="55.5" y="43.5"><title>2024-04-07</title></rect><rect fill="#FBF4F9" height="2.6" rx="0.4" ry="0.4" width="2.6" x="59.0" y="22.5"><title>2024-04-08</title></rect><rect fill="#FBF4F9" height="2.6" rx="0.4" ry="0.4" width="2.6" x="59.0" y="26.0"><title>2024-04-09</title></rect><rect fill="#FBF4F9" height="2.6" rx="0.4" ry="0.4" width="2.6" x="59.0" y="29.5"><title>2024-04-10</title></rect><rect fill="#FBF4F9" height="2.6" rx="0.4" ry="0.4" width="2.6" x="59.0" y="33.0"><title>2024-04-11</title></rect><rect fill="#FBF4F9" height="2.6" rx="0.4" ry="0.4" width="2.6" x="59.0" y="36.5"><title>2024-04-12</title></rect><rect fill="#FBF4F9" height="2.6" rx="0.4" ry="0.4" width="2.6" x="59.0" y="40.0"><title>2024-04-13</title></rect><rect fill="#FBF4F9" height="2.6" rx="0.4" ry="0.4" width="2.6" x="59.0" y="43.5"><title>2024-04-14</title></rect><rect fill="#FBF4F9" height="2.6" rx="0.4" ry="0.4" width="2.6" x="62.5" y="22.5"><title>2024-04-15</title></rect><rect fill="#FBF4F9" height="2.6" rx="0.4" ry="0.4" width="2.6" x="62.5" y="26.0"><title>2024-04-16</title></rect><rect fill="#FBF4F9" height="2.6" rx="0.4" ry="0.4" width="2.6" x="62.5" y="29.5"><title>2024-04-17</title></rect><rect fill="#FBF4F9" height="2.6" rx="0.4" ry="0.4" width="2.6" x="62.5" y="33.0"><title>2024-04-18</title></rect><rect fill="#FBF4F9" height="2.6" rx="0.4" ry="0.4" width="2.6" x="62.5" y="36.5"><title>2024-04-19</title></rect><rect fill="#FBF4F9" height="2.6" rx="0.4" ry="0.4" width="2.6" x="62.5" y="40.0"><title>2024-04-20</title></rect><rect fill="#FBF4F9" height="2.6" rx="0.4" ry="0.4" width="2.6" x="62.5" y="43.5"><title>2024-04-21</title></rect><rect fill="#FBF4F9" height="2.6" rx="0.4" ry="0.4" width="2.6" x="66.0" y="22.5"><title>2024-04-22</title></rect><rect fill="#FBF4F9" height="2.6" rx="0.4" ry="0.4" width="2.6" x="66.0" y="26.0"><title>2024-04-23</title></rect><rect fill="#FBF4F9" height="2.6" rx="0.4" ry="0.4" width="2.6" x="66.0" y="29.5"><title>2024-04-24</title></rect><rect fill="#FBF4F9" height="2.6" rx="0.4" ry="0.4" width="2.6" x="66.0" y="33.0"><title>2024-04-25</title></rect><rect fill="#FBF4F9" height="2.6" rx="0.4" ry="0.4" width="2.6" x="66.0" y="36.5"><title>2024-04-26</title></rect><rect fill="#FBF4F9" height="2.6" rx="0.4" ry="0.4" width="2.6" x="66.0" y="40.0"><title>2024-04-27</title></rect><rect fill="#FBF4F9" height="2.6" rx="0.4" ry="0.4" width="2.6" x="66.0" y="43.5"><title>2024-04-28</title></rect><rect fill="#FBF4F9" height="2.6" rx="0.4" ry="0.4" width="2.6" x="69.5" y="22.5"><title>2024-04-29</title></rect><rect fill="#FBF4F9" height="2.6" rx="0.4" ry="0.4" width="2.6" x="69.5" y="26.0"><title>2024-04-30</title></rect><rect fill="#FBF4F9" height="2.6" rx="0.4" ry="0.4" width="2.6" x="69.5" y="29.5"><title>2024-05-01</title></rect><rect fill="#FBF4F9" height="2.6" rx="0.4" ry="0.4" width="2.6" x="69.5" y="33.0"><title>2024-05-02</title></rect><rect fill="#FBF4F9" height="2.6" rx="0.4" ry="0.4" width="2.6" x="69.5" y="36.5"><title>2024-05-03</title></rect><rect fill="#FBF4F9" height="2.6" rx="0.4" ry="0.4" width="2.6" x="69.5" y="40.0"><title>2024-05-04</title></rect><rect fill="#FBF4F9" height="2.6" rx="0.4" ry="0.4" width="2.6" x="69.5" y="43.5"><title>2024-05-05</title></rect><rect fill="#FBF4F9" height="2.6" rx="0.4" ry="0.4" width="2.6" x="73.0" y="22.5"><title>2024-05-06</title></rect><rect fill="#FBF4F9" height="2.6" rx="0.4" ry="0.4" width="2.6" x="73.0" y="26.0"><title>2024-05-07</title></rect><rect fill="#FBF4F9" height="2.6" rx="0.4" ry="0.4" width="2.6" x="73.0" y="29.5"><title>2024-05-08</title></rect><rect fill="#FBF4F9" height="2.6" rx="0.4" ry="0.4" width="2.6" x="73.0" y="33.0"><title>2024-05-09</title></rect><rect fill="#FBF4F9" height="2.6" rx="0.4" ry="0.4" width="2.6" x="73.0" y="36.5"><title>2024-05-10</title></rect><rect fill="#FBF4F9" height="2.6" rx="0.4" ry="0.4" width="2.6" x="73.0" y="40.0"><title>2024-05-11</title></rect><rect fill="#FBF4F9" height="2.6" rx="0.4" ry="0.4" width="2.6" x="73.0" y="43.5"><title>2024-05-12</title></rect><rect fill="#FBF4F9" height="2.6" rx="0.4" ry="0.4" width="2.6" x="76.5" y="22.5"><title>2024-05-13</title></rect><rect fill="#FBF4F9" height="2.6" rx="0.4" ry="0.4" width="2.6" x="76.5" y="26.0"><title>2024-05-14</title></rect><rect fill="#FBF4F9" height="2.6" rx="0.4" ry="0.4" width="2.6" x="76.5" y="29.5"><title>2024-05-15</title></rect><rect fill="#FBF4F9" height="2.6" rx="0.4" ry="0.4" width="2.6" x="76.5" y="33.0"><title>2024-05-16</title></rect><rect fill="#FBF4F9" height="2.6" rx="0.4" ry="0.4" width="2.6" x="76.5" y="36.5"><title>2024-05-17</title></rect><rect fill="#FBF4F9" height="2.6" rx="0.4" ry="0.4" width="2.6" x="76.5" y="40.0"><title>2024-05-18</title></rect><rect fill="#FBF4F9" height="2.6" rx="0.4" ry="0.4" width="2.6" x="76.5" y="43.5"><title>2024-05-19</title></rect><rect fill="#FBF4F9" height="2.6" rx="0.4" ry="0.4" width="2.6" x="80.0" y="22.5"><title>2024-05-20</title></rect><rect fill="#FBF4F9" height="2.6" rx="0.4" ry="0.4" width="2.6" x="80.0" y="26.0"><title>2024-05-21</title></rect><rect fill="#FBF4F9" height="2.6" rx="0.4" ry="0.4" width="2.6" x="80.0" y="29.5"><title>2024-05-22</title></rect><rect fill="#FBF4F9" height="2.6" rx="0.4" ry="0.4" width="2.6" x="80.0" y="33.0"><title>2024-05-23</title></rect><rect fill="#FBF4F9" height="2.6" rx="0.4" ry="0.4" width="2.6" x="80.0" y="36.5"><title>2024-05-24</title></rect><rect fill="#FBF4F9" height="2.6" rx="0.4" ry="0.4" width="2.6" x="80.0" y="40.0"><title>2024-05-25</title></rect><rect fill="#FBF4F9" height="2.6" rx="0.4" ry="0.4" width="2.6" x="80.0" y="43.5"><title>2024-05-26</title></rect><rect fill="#FBF4F9" height="2.6" rx="0.4" ry="0.4" width="2.6" x="83.5" y="22.5"><title>2024-05-27</title></rect><rect fill="#FBF4F9" height="2.6" rx="0.4" ry="0.4" width="2.6" x="83.5" y="26.0"><title>2024-05-28</title></rect><rect fill="#FBF4F9" height="2.6" rx="0.4" ry="0.4" width="2.6" x="83.5" y="29.5"><title>2024-05-29</title></rect><rect fill="#FBF4F9" height="2.6" rx="0.4" ry="0.4" width="2.6" x="83.5" y="33.0"><title>2024-05-30</title></rect><rect fill="#FBF4F9" height="2.6" rx="0.4" ry="0.4" width="2.6" x="83.5" y="36.5"><title>2024-05-31</title></rect><rect fill="#FBF4F9" height="2.6" rx="0.4" ry="0.4" width="2.6" x="83.5" y="40.0"><title>2024-06-01</title></rect><rect fill="#FBF4F9" height="2.6" rx="0.4" ry="0.4" width="2.6" x="83.5" y="43.5"><title>2024-06-02</title></rect><rect fill="#FBF4F9" height="2.6" rx="0.4" ry="0.4" width="2.6" x="87.0" y="22.5"><title>2024-06-03</title></rect><rect fill="#FBF4F9" height="2.6" rx="0.4" ry="0.4" width="2.6" x="87.0" y="26.0"><title>2024-06-04</title></rect><rect fill="#FBF4F9" height="2.6" rx="0.4" ry="0.4" width="2.6" x="87.0" y="29.5"><title>2024-06-05</title></rect><rect fill="#FBF4F9" height="2.6" rx="0.4" ry="0.4" width="2.6" x="87.0" y="33.0"><title>2024-06-06</title></rect><rect fill="#FBF4F9" height="2.6" rx="0.4" ry="0.4" width="2.6" x="87.0" y="36.5"><title>2024-06-07</title></rect><rect fill="#FBF4F9" height="2.6" rx="0.4" ry="0.4" width="2.6" x="87.0" y="40.0"><title>2024-06-08</title></rect><rect fill="#FBF4F9" height="2.6" rx="0.4" ry="0.4" width="2.6" x="87.0" y="43.5"><title>2024-06-09</title></rect><rect fill="#FBF4F9" height="2.6" rx="0.4" ry="0.4" width="2.6" x="90.5" y="22.5"><title>2024-06-10</title></rect><rect fill="#FBF4F9" height="2.6" rx="0.4" ry="0.4" width="2.6" x="90.5" y="26.0"><title>2024-06-11</title></rect><rect fill="#FBF4F9" height="2.6" rx="0.4" ry="0.4" width="2.6" x="90.5" y="29.5"><title>2024-06-12</title></rect><rect fill="#FBF4F9" height="2.6" rx="0.4" ry="0.4" width="2.6" x="90.5" y="33.0"><title>2024-06-13</title></rect><rect fill="#FBF4F9" height="2.6" rx="0.4" ry="0.4" width="2.6" x="90.5" y="36.5"><title>2024-06-14</title></rect><rect fill="#FBF4F9" height="2.6" rx="0.4" ry="0.4" width="2.6" x="90.5" y="40.0"><title>2024-06-15</title></rect><rect fill="#FBF4F9" height="2.6" rx="0.4" ry="0.4" width="2.6" x="90.5" y="43.5"><title>2024-06-16</title></rect><rect fill="#FBF4F9" height="2.6" rx="0.4" ry="0.4" width="2.6" x="94.0" y="22.5"><title>2024-06-17</title></rect><rect fill="#FBF4F9" height="2.6" rx="0.4" ry="0.4" width="2.6" x="94.0" y="26.0"><title>2024-06-18</title></rect><rect fill="#FBF4F9" height="2.6" rx="0.4" ry="0.4" width="2.6" x="94.0" y="29.5"><title>2024-06-19</title></rect><rect fill="#FBF4F9" height="2.6" rx="0.4" ry="0.4" width="2.6" x="94.0" y="33.0"><title>2024-06-20</title></rect><rect fill="#FBF4F9" height="2.6" rx="0.4" ry="0.4" width="2.6" x="94.0" y="36.5"><title>2024-06-21</title></rect><rect fill="#FBF4F9" height="2.6" rx="0.4" ry="0.4" width="2.6" x="94.0" y="40.0"><title>2024-06-22</title></rect><rect fill="#FBF4F9" height="2.6" rx="0.4" ry="0.4" width="2.6" x="94.0" y="43.5"><title>2024-06-23</title></rect><rect fill="#FBF4F9" height="2.6" rx="0.4" ry="0.4" width="2.6" x="97.5" y="22.5"><title>2024-06-24</title></rect><rect fill="#FBF4F9" height="2.6" rx="0.4" ry="0.4" width="2.6" x="97.5" y="26.0"><title>2024-06-25</title></rect><rect fill="#FBF4F9" height="2.6" rx="0.4" ry="0.4" width="2.6" x="97.5" y="29.5"><title>2024-06-26</title></rect><rect fill="#FBF4F9" height="2.6" rx="0.4" ry="0.4" width="2.6" x="97.5" y="33.0"><title>2024-06-27</title></rect><rect fill="#FBF4F9" height="2.6" rx="0.4" ry="0.4" width="2.6" x="97.5" y="36.5"><title>2024-06-28</title></rect><rect fill="#FBF4F9" height="2.6" rx="0.4" ry="0.4" width="2.6" x="97.5" y="40.0"><title>2024-06-29</title></rect><rect fill="#FBF4F9" height="2.6" rx="0.4" ry="0.4" width="2.6" x="97.5" y="43.5"><title>2024-06-30</title></rect><rect fill="#FBF4F9" height="2.6" rx="0.4" ry="0.4" width="2.6" x="101.0" y="22.5"><title>2024-07-01</title></rect><rect fill="#FBF4F9" height="2.6" rx="0.4" ry="0.4" width="2.6" x="101.0" y="26.0"><title>2024-07-02</title></rect><rect fill="#FBF4F9" height="2.6" rx="0.4" ry="0.4" width="2.6" x="101.0" y="29.5"><title>2024-07-03</title></rect><rect fill="#FBF4F9" height="2.6" rx="0.4" ry="0.4" width="2.6" x="101.0" y="33.0"><title>2024-07-04</title></rect><rect fill="#FBF4F9" height="2.6" rx="0.4" ry="0.4" width="2.6" x="101.0" y="36.5"><title>2024-07-05</title></rect><rect fill="#FBF4F9" height="2.6" rx="0.4" ry="0.4" width="2.6" x="101.0" y="40.0"><title>2024-07-06</title></rect><rect fill="#FBF4F9" height="2.6" rx="0.4" ry="0.4" width="2.6" x="101.0" y="43.5"><title>2024-07-07</title></rect><rect fill="#FBF4F9" height="2.6" rx="0.4" ry="0.4" width="2.6" x="104.5" y="22.5"><title>2024-07-08</title></rect><rect fill="#FBF4F9" height="2.6" rx="0.4" ry="0.4" width="2.6" x="104.5" y="26.0"><title>2024-07-09</title></rect><rect fill="#FBF4F9" height="2.6" rx="0.4" ry="0.4" width="2.6" x="104.5" y="29.5"><title>2024-07-10</title></rect><rect fill="#FBF4F9" height="2.6" rx="0.4" ry="0.4" width="2.6" x="104.5" y="33.0"><title>2024-07-11</title></rect><rect fill="#FBF4F9" height="2.6" rx="0.4" ry="0.4" width="2.6" x="104.5" y="36.5"><title>2024-07-12</title></rect><rect fill="#FBF4F9" height="2.6" rx="0.4" ry="0.4" width="2.6" x="104.5" y="40.0"><title>2024-07-13</title></rect><rect fill="#FBF4F9" height="2.6" rx="0.4" ry="0.4" width="2.6" x="104.5" y="43.5"><title>2024-07-14</title></rect><rect fill="#FBF4F9" height="2.6" rx="0.4" ry="0.4" width="2.6" x="108.0" y="22.5"><title>2024-07-15</title></rect><rect fill="#FBF4F9" height="2.6" rx="0.4" ry="0.4" width="2.6" x="108.0" y="26.0"><title>2024-07-16</title></rect><rect fill="#FBF4F9" height="2.6" rx="0.4" ry="0.4" width="2.6" x="108.0" y="29.5"><title>2024-07-17</title></rect><rect fill="#FBF4F9" height="2.6" rx="0.4" ry="0.4" width="2.6" x="108.0" y="33.0"><title>2024-07-18</title></rect><rect fill="#FBF4F9" height="2.6" rx="0.4" ry="0.4" width="2.6" x="108.0" y="36.5"><title>2024-07-19</title></rect><rect fill="#FBF4F9" height="2.6" rx="0.4" ry="0.4" width="2.6" x="108.0" y="40.0"><title>2024-07-20</title></rect><rect fill="#FBF4F9" height="2.6" rx="0.4" ry="0.4" width="2.6" x="108.0" y="43.5"><title>2024-07-21</title></rect><rect fill="#FBF4F9" height="2.6" rx="0.4" ry="0.4" width="2.6" x="111.5" y="22.5"><title>2024-07-22</title></rect><rect fill="#FBF4F9" height="2.6" rx="0.4" ry="0.4" width="2.6" x="111.5" y="26.0"><title>2024-07-23</title></rect><rect fill="#FBF4F9" height="2.6" rx="0.4" ry="0.4" width="2.6" x="111.5" y="29.5"><title>2024-07-24</title></rect><rect fill="#FBF4F9" height="2.6" rx="0.4" ry="0.4" width="2.6" x="111.5" y="33.0"><title>2024-07-25</title></rect><rect fill="#FBF4F9" height="2.6" rx="0.4" ry="0.4" width="2.6" x="111.5" y="36.5"><title>2024-07-26</title></rect><rect fill="#FBF4F9" height="2.6" rx="0.4" ry="0.4" width="2.6" x="111.5" y="40.0"><title>2024-07-27</title></rect><rect fill="#FBF4F9" height="2.6" rx="0.4" ry="0.4" width="2.6" x="111.5" y="43.5"><title>2024-07-28</title></rect><rect fill="#FBF4F9" height="2.6" rx="0.4" ry="0.4" width="2.6" x="115.0" y="22.5"><title>2024-07-29</title></rect><rect fill="#FBF4F9" height="2.6" rx="0.4" ry="0.4" width="2.6" x="115.0" y="26.0"><title>2024-07-30</title></rect><rect fill="#FBF4F9" height="2.6" rx="0.4" ry="0.4" width="2.6" x="115.0" y="29.5"><title>2024-07-31</title></rect><rect fill="#FBF4F9" height="2.6" rx="0.4" ry="0.4" width="2.6" x="115.0" y="33.0"><title>2024-08-01</title></rect><rect fill="#FBF4F9" height="2.6" rx="0.4" ry="0.4" width="2.6" x="115.0" y="36.5"><title>2024-08-02</title></rect><rect fill="#FBF4F9" height="2.6" rx="0.4" ry="0.4" width="2.6" x="115.0" y="40.0"><title>2024-08-03</title></rect><rect fill="#FBF4F9" height="2.6" rx="0.4" ry="0.4" width="2.6" x="115.0" y="43.5"><title>2024-08-04</title></rect><rect fill="#FBF4F9" height="2.6" rx="0.4" ry="0.4" width="2.6" x="118.5" y="22.5"><title>2024-08-05</title></rect><rect fill="#FBF4F9" height="2.6" rx="0.4" ry="0.4" width="2.6" x="118.5" y="26.0"><title>2024-08-06</title></rect><rect fill="#FBF4F9" height="2.6" rx="0.4" ry="0.4" width="2.6" x="118.5" y="29.5"><title>2024-08-07</title></rect><rect fill="#FBF4F9" height="2.6" rx="0.4" ry="0.4" width="2.6" x="118.5" y="33.0"><title>2024-08-08</title></rect><rect fill="#FBF4F9" height="2.6" rx="0.4" ry="0.4" width="2.6" x="118.5" y="36.5"><title>2024-08-09</title></rect><rect fill="#FBF4F9" height="2.6" rx="0.4" ry="0.4" width="2.6" x="118.5" y="40.0"><title>2024-08-10</title></rect><rect fill="#FBF4F9" height="2.6" rx="0.4" ry="0.4" width="2.6" x="118.5" y="43.5"><title>2024-08-11</title></rect><rect fill="#FBF4F9" height="2.6" rx="0.4" ry="0.4" width="2.6" x="122.0" y="22.5"><title>2024-08-12</title></rect><rect fill="#FBF4F9" height="2.6" rx="0.4" ry="0.4" width="2.6" x="122.0" y="26.0"><title>2024-08-13</title></rect><rect fill="#FBF4F9" height="2.6" rx="0.4" ry="0.4" width="2.6" x="122.0" y="29.5"><title>2024-08-14</title></rect><rect fill="#FBF4F9" height="2.6" rx="0.4" ry="0.4" width="2.6" x="122.0" y="33.0"><title>2024-08-15</title></rect><rect fill="#FBF4F9" height="2.6" rx="0.4" ry="0.4" width="2.6" x="122.0" y="36.5"><title>2024-08-16</title></rect><rect fill="#FBF4F9" height="2.6" rx="0.4" ry="0.4" width="2.6" x="122.0" y="40.0"><title>2024-08-17</title></rect><rect fill="#FBF4F9" height="2.6" rx="0.4" ry="0.4" width="2.6" x="122.0" y="43.5"><title>2024-08-18</title></rect><rect fill="#FBF4F9" height="2.6" rx="0.4" ry="0.4" width="2.6" x="125.5" y="22.5"><title>2024-08-19</title></rect><rect fill="#FBF4F9" height="2.6" rx="0.4" ry="0.4" width="2.6" x="125.5" y="26.0"><title>2024-08-20</title></rect><rect fill="#FBF4F9" height="2.6" rx="0.4" ry="0.4" width="2.6" x="125.5" y="29.5"><title>2024-08-21</title></rect><rect fill="#FBF4F9" height="2.6" rx="0.4" ry="0.4" width="2.6" x="125.5" y="33.0"><title>2024-08-22</title></rect><rect fill="#FBF4F9" height="2.6" rx="0.4" ry="0.4" width="2.6" x="125.5" y="36.5"><title>2024-08-23</title></rect><rect fill="#FBF4F9" height="2.6" rx="0.4" ry="0.4" width="2.6" x="125.5" y="40.0"><title>2024-08-24</title></rect><rect fill="#FBF4F9" height="2.6" rx="0.4" ry="0.4" width="2.6" x="125.5" y="43.5"><title>2024-08-25</title></rect><rect fill="#FBF4F9" height="2.6" rx="0.4" ry="0.4" width="2.6" x="129.0" y="22.5"><title>2024-08-26</title></rect><rect fill="#FBF4F9" height="2.6" rx="0.4" ry="0.4" width="2.6" x="129.0" y="26.0"><title>2024-08-27</title></rect><rect fill="#FBF4F9" height="2.6" rx="0.4" ry="0.4" width="2.6" x="129.0" y="29.5"><title>2024-08-28</title></rect><rect fill="#FBF4F9" height="2.6" rx="0.4" ry="0.4" width="2.6" x="129.0" y="33.0"><title>2024-08-29</title></rect><rect fill="#FBF4F9" height="2.6" rx="0.4" ry="0.4" width="2.6" x="129.0" y="36.5"><title>2024-08-30</title></rect><rect fill="#FBF4F9" height="2.6" rx="0.4" ry="0.4" width="2.6" x="129.0" y="40.0"><title>2024-08-31</title></rect><rect fill="#FBF4F9" height="2.6" rx="0.4" ry="0.4" width="2.6" x="129.0" y="43.5"><title>2024-09-01</title></rect><rect fill="#FBF4F9" height="2.6" rx="0.4" ry="0.4" width="2.6" x="132.5" y="22.5"><title>2024-09-02</title></rect><rect fill="#FBF4F9" height="2.6" rx="0.4" ry="0.4" width="2.6" x="132.5" y="26.0"><title>2024-09-03</title></rect><rect fill="#FBF4F9" height="2.6" rx="0.4" ry="0.4" width="2.6" x="132.5" y="29.5"><title>2024-09-04</title></rect><rect fill="#FBF4F9" height="2.6" rx="0.4" ry="0.4" width="2.6" x="132.5" y="33.0"><title>2024-09-05</title></rect><rect fill="#FBF4F9" height="2.6" rx="0.4" ry="0.4" width="2.6" x="132.5" y="36.5"><title>2024-09-06</title></rect><rect fill="#FBF4F9" height="2.6" rx="0.4" ry="0.4" width="2.6" x="132.5" y="40.0"><title>2024-09-07</title></rect><rect fill="#FBF4F9" height="2.6" rx="0.4" ry="0.4" width="2.6" x="132.5" y="43.5"><title>2024-09-08</title></rect><rect fill="#FBF4F9" height="2.6" rx="0.4" ry="0.4" width="2.6" x="136.0" y="22.5"><title>2024-09-09</title></rect><rect fill="#FBF4F9" height="2.6" rx="0.4" ry="0.4" width="2.6" x="136.0" y="26.0"><title>2024-09-10</title></rect><rect fill="#FBF4F9" height="2.6" rx="0.4" ry="0.4" width="2.6" x="136.0" y="29.5"><title>2024-09-11</title></rect><rect fill="#FBF4F9" height="2.6" rx="0.4" ry="0.4" width="2.6" x="136.0" y="33.0"><title>2024-09-12</title></rect><rect fill="#FBF4F9" height="2.6" rx="0.4" ry="0.4" width="2.6" x="136.0" y="36.5"><title>2024-09-13</title></rect><rect fill="#FBF4F9" height="2.6" rx="0.4" ry="0.4" width="2.6" x="136.0" y="40.0"><title>2024-09-14</title></rect><rect fill="#FBF4F9" height="2.6" rx="0.4" ry="0.4" width="2.6" x="136.0" y="43.5"><title>2024-09-15</title></rect><rect fill="#FBF4F9" height="2.6" rx="0.4" ry="0.4" width="2.6" x="139.5" y="22.5"><title>2024-09-16</title></rect><rect fill="#FBF4F9" height="2.6" rx="0.4" ry="0.4" width="2.6" x="139.5" y="26.0"><title>2024-09-17</title></rect><rect fill="#FBF4F9" height="2.6" rx="0.4" ry="0.4" width="2.6" x="139.5" y="29.5"><title>2024-09-18</title></rect><rect fill="#FBF4F9" height="2.6" rx="0.4" ry="0.4" width="2.6" x="139.5" y="33.0"><title>2024-09-19</title></rect><rect fill="#FBF4F9" height="2.6" rx="0.4" ry="0.4" width="2.6" x="139.5" y="36.5"><title>2024-09-20</title></rect><rect fill="#FBF4F9" height="2.6" rx="0.4" ry="0.4" width="2.6" x="139.5" y="40.0"><title>2024-09-21</title></rect><rect fill="#FBF4F9" height="2.6" rx="0.4" ry="0.4" width="2.6" x="139.5" y="43.5"><title>2024-09-22</title></rect><rect fill="#FBF4F9" height="2.6" rx="0.4" ry="0.4" width="2.6" x="143.0" y="22.5"><title>2024-09-23</title></rect><rect fill="#FBF4F9" height="2.6" rx="0.4" ry="0.4" width="2.6" x="143.0" y="26.0"><title>2024-09-24</title></rect><rect fill="#FBF4F9" height="2.6" rx="0.4" ry="0.4" width="2.6" x="143.0" y="29.5"><title>2024-09-25</title></rect><rect fill="#FBF4F9" height="2.6" rx="0.4" ry="0.4" width="2.6" x="143.0" y="33.0"><title>2024-09-26</title></rect><rect fill="#FBF4F9" height="2.6" rx="0.4" ry="0.4" width="2.6" x="143.0" y="36.5"><title>2024-09-27</title></rect><rect fill="#FBF4F9" height="2.6" rx="0.4" ry="0.4" width="2.6" x="143.0" y="40.0"><title>2024-09-28</title></rect><rect fill="#FBF4F9" height="2.6" rx="0.4" ry="0.4" width="2.6" x="143.0" y="43.5"><title>2024-09-29</title></rect><rect fill="#FBF4F9" height="2.6" rx="0.4" ry="0.4" width="2.6" x="146.5" y="22.5"><title>2024-09-30</title></rect><rect fill="#FBF4F9" height="2.6" rx="0.4" ry="0.4" width="2.6" x="146.5" y="26.0"><title>2024-10-01</title></rect><rect fill="#FBF4F9" height="2.6" rx="0.4" ry="0.4" width="2.6" x="146.5" y="29.5"><title>2024-10-02</title></rect><rect fill="#FBF4F9" height="2.6" rx="0.4" ry="0.4" width="2.6" x="146.5" y="33.0"><title>2024-10-03</title></rect><rect fill="#FBF4F9" height="2.6" rx="0.4" ry="0.4" width="2.6" x="146.5" y="36.5"><title>2024-10-04</title></rect><rect fill="#FBF4F9" height="2.6" rx="0.4" ry="0.4" width="2.6" x="146.5" y="40.0"><title>2024-10-05</title></rect><rect fill="#FBF4F9" height="2.6" rx="0.4" ry="0.4" width="2.6" x="146.5" y="43.5"><title>2024-10-06</title></rect><rect fill="#FBF4F9" height="2.6" rx="0.4" ry="0.4" width="2.6" x="150.0" y="22.5"><title>2024-10-07</title></rect><rect fill="#FBF4F9" height="2.6" rx="0.4" ry="0.4" width="2.6" x="150.0" y="26.0"><title>2024-10-08</title></rect><rect fill="#FBF4F9" height="2.6" rx="0.4" ry="0.4" width="2.6" x="150.0" y="29.5"><title>2024-10-09</title></rect><rect fill="#FBF4F9" height="2.6" rx="0.4" ry="0.4" width="2.6" x="150.0" y="33.0"><title>2024-10-10</title></rect><rect fill="#FBF4F9" height="2.6" rx="0.4" ry="0.4" width="2.6" x="150.0" y="36.5"><title>2024-10-11</title></rect><rect fill="#FBF4F9" height="2.6" rx="0.4" ry="0.4" width="2.6" x="150.0" y="40.0"><title>2024-10-12</title></rect><rect fill="#FBF4F9" height="2.6" rx="0.4" ry="0.4" width="2.6" x="150.0" y="43.5"><title>2024-10-13</title></rect><rect fill="#FBF4F9" height="2.6" rx="0.4" ry="0.4" width="2.6" x="153.5" y="22.5"><title>2024-10-14</title></rect><rect fill="#FBF4F9" height="2.6" rx="0.4" ry="0.4" width="2.6" x="153.5" y="26.0"><title>2024-10-15</title></rect><rect fill="#FBF4F9" height="2.6" rx="0.4" ry="0.4" width="2.6" x="153.5" y="29.5"><title>2024-10-16</title></rect><rect fill="#FBF4F9" height="2.6" rx="0.4" ry="0.4" width="2.6" x="153.5" y="33.0"><title>2024-10-17</title></rect><rect fill="#FBF4F9" height="2.6" rx="0.4" ry="0.4" width="2.6" x="153.5" y="36.5"><title>2024-10-18</title></rect><rect fill="#FBF4F9" height="2.6" rx="0.4" ry="0.4" width="2.6" x="153.5" y="40.0"><title>2024-10-19</title></rect><rect fill="#FBF4F9" height="2.6" rx="0.4" ry="0.4" width="2.6" x="153.5" y="43.5"><title>2024-10-20</title></rect><rect fill="#FBF4F9" height="2.6" rx="0.4" ry="0.4" width="2.6" x="157.0" y="22.5"><title>2024-10-21</title></rect><rect fill="#FBF4F9" height="2.6" rx="0.4" ry="0.4" width="2.6" x="157.0" y="26.0"><title>2024-10-22</title></rect><rect fill="#FBF4F9" height="2.6" rx="0.4" ry="0.4" width="2.6" x="157.0" y="29.5"><title>2024-10-23</title></rect><rect fill="#FBF4F9" height="2.6" rx="0.4" ry="0.4" width="2.6" x="157.0" y="33.0"><title>2024-10-24</title></rect><rect fill="#FBF4F9" height="2.6" rx="0.4" ry="0.4" width="2.6" x="157.0" y="36.5"><title>2024-10-25</title></rect><rect fill="#FBF4F9" height="2.6" rx="0.4" ry="0.4" width="2.6" x="157.0" y="40.0"><title>2024-10-26</title></rect><rect fill="#FBF4F9" height="2.6" rx="0.4" ry="0.4" width="2.6" x="157.0" y="43.5"><title>2024-10-27</title></rect><rect fill="#FBF4F9" height="2.6" rx="0.4" ry="0.4" width="2.6" x="160.5" y="22.5"><title>2024-10-28</title></rect><rect fill="#FBF4F9" height="2.6" rx="0.4" ry="0.4" width="2.6" x="160.5" y="26.0"><title>2024-10-29</title></rect><rect fill="#FBF4F9" height="2.6" rx="0.4" ry="0.4" width="2.6" x="160.5" y="29.5"><title>2024-10-30</title></rect><rect fill="#FBF4F9" height="2.6" rx="0.4" ry="0.4" width="2.6" x="160.5" y="33.0"><title>2024-10-31</title></rect><rect fill="#FBF4F9" height="2.6" rx="0.4" ry="0.4" width="2.6" x="160.5" y="36.5"><title>2024-11-01</title></rect><rect fill="#FBF4F9" height="2.6" rx="0.4" ry="0.4" width="2.6" x="160.5" y="40.0"><title>2024-11-02</title></rect><rect fill="#FBF4F9" height="2.6" rx="0.4" ry="0.4" width="2.6" x="160.5" y="43.5"><title>2024-11-03</title></rect><rect fill="#FBF4F9" height="2.6" rx="0.4" ry="0.4" width="2.6" x="164.0" y="22.5"><title>2024-11-04</title></rect><rect fill="#FBF4F9" height="2.6" rx="0.4" ry="0.4" width="2.6" x="164.0" y="26.0"><title>2024-11-05</title></rect><rect fill="#FBF4F9" height="2.6" rx="0.4" ry="0.4" width="2.6" x="164.0" y="29.5"><title>2024-11-06</title></rect><rect fill="#FBF4F9" height="2.6" rx="0.4" ry="0.4" width="2.6" x="164.0" y="33.0"><title>2024-11-07</title></rect><rect fill="#FBF4F9" height="2.6" rx="0.4" ry="0.4" width="2.6" x="164.0" y="36.5"><title>2024-11-08</title></rect><rect fill="#FBF4F9" height="2.6" rx="0.4" ry="0.4" width="2.6" x="164.0" y="40.0"><title>2024-11-09</title></rect><rect fill="#FBF4F9" height="2.6" rx="0.4" ry="0.4" width="2.6" x="164.0" y="43.5"><title>2024-11-10</title></rect><rect fill="#FBF4F9" height="2.6" rx="0.4" ry="0.4" width="2.6" x="167.5" y="22.5"><title>2024-11-11</title></rect><rect fill="#FBF4F9" height="2.6" rx="0.4" ry="0.4" width="2.6" x="167.5" y="26.0"><title>2024-11-12</title></rect><rect fill="#FBF4F9" height="2.6" rx="0.4" ry="0.4" width="2.6" x="167.5" y="29.5"><title>2024-11-13</title></rect><rect fill="#FBF4F9" height="2.6" rx="0.4" ry="0.4" width="2.6" x="167.5" y="33.0"><title>2024-11-14</title></rect><rect fill="#FBF4F9" height="2.6" rx="0.4" ry="0.4" width="2.6" x="167.5" y="36.5"><title>2024-11-15</title></rect><rect fill="#FBF4F9" height="2.6" rx="0.4" ry="0.4" width="2.6" x="167.5" y="40.0"><title>2024-11-16</title></rect><rect fill="#FBF4F9" height="2.6" rx="0.4" ry="0.4" width="2.6" x="167.5" y="43.5"><title>2024-11-17</title></rect><rect fill="#FBF4F9" height="2.6" rx="0.4" ry="0.4" width="2.6" x="171.0" y="22.5"><title>2024-11-18</title></rect><rect fill="#FBF4F9" height="2.6" rx="0.4" ry="0.4" width="2.6" x="171.0" y="26.0"><title>2024-11-19</title></rect><rect fill="#FBF4F9" height="2.6" rx="0.4" ry="0.4" width="2.6" x="171.0" y="29.5"><title>2024-11-20</title></rect><rect fill="#FBF4F9" height="2.6" rx="0.4" ry="0.4" width="2.6" x="171.0" y="33.0"><title>2024-11-21</title></rect><rect fill="#FBF4F9" height="2.6" rx="0.4" ry="0.4" width="2.6" x="171.0" y="36.5"><title>2024-11-22</title></rect><rect fill="#FBF4F9" height="2.6" rx="0.4" ry="0.4" width="2.6" x="171.0" y="40.0"><title>2024-11-23</title></rect><rect fill="#FBF4F9" height="2.6" rx="0.4" ry="0.4" width="2.6" x="171.0" y="43.5"><title>2024-11-24</title></rect><rect fill="#FBF4F9" height="2.6" rx="0.4" ry="0.4" width="2.6" x="174.5" y="22.5"><title>2024-11-25</title></rect><rect fill="#FBF4F9" height="2.6" rx="0.4" ry="0.4" width="2.6" x="174.5" y="26.0"><title>2024-11-26</title></rect><rect fill="#FBF4F9" height="2.6" rx="0.4" ry="0.4" width="2.6" x="174.5" y="29.5"><title>2024-11-27</title></rect><rect fill="#FBF4F9" height="2.6" rx="0.4" ry="0.4" width="2.6" x="174.5" y="33.0"><title>2024-11-28</title></rect><rect fill="#FBF4F9" height="2.6" rx="0.4" ry="0.4" width="2.6" x="174.5" y="36.5"><title>2024-11-29</title></rect><rect fill="#FBF4F9" height="2.6" rx="0.4" ry="0.4" width="2.6" x="174.5" y="40.0"><title>2024-11-30</title></rect><rect fill="#FBF4F9" height="2.6" rx="0.4" ry="0.4" width="2.6" x="174.5" y="43.5"><title>2024-12-01</title></rect><rect fill="#FBF4F9" height="2.6" rx="0.4" ry="0.4" width="2.6" x="178.0" y="22.5"><title>2024-12-02</title></rect><rect fill="#FBF4F9" height="2.6" rx="0.4" ry="0.4" width="2.6" x="178.0" y="26.0"><title>2024-12-03</title></rect><rect fill="#FBF4F9" height="2.6" rx="0.4" ry="0.4" width="2.6" x="178.0" y="29.5"><title>2024-12-04</title></rect><rect fill="#FBF4F9" height="2.6" rx="0.4" ry="0.4" width="2.6" x="178.0" y="33.0"><title>2024-12-05</title></rect><rect fill="#FBF4F9" height="2.6" rx="0.4" ry="0.4" width="2.6" x="178.0" y="36.5"><title>2024-12-06</title></rect><rect fill="#FBF4F9" height="2.6" rx="0.4" ry="0.4" width="2.6" x="178.0" y="40.0"><title>2024-12-07</title></rect><rect fill="#FBF4F9" height="2.6" rx="0.4" ry="0.4" width="2.6" x="178.0" y="43.5"><title>2024-12-08</title></rect><rect fill="#FBF4F9" height="2.6" rx="0.4" ry="0.4" width="2.6" x="181.5" y="22.5"><title>2024-12-09</title></rect><rect fill="#FBF4F9" height="2.6" rx="0.4" ry="0.4" width="2.6" x="181.5" y="26.0"><title>2024-12-10</title></rect><rect fill="#FBF4F9" height="2.6" rx="0.4" ry="0.4" width="2.6" x="181.5" y="29.5"><title>2024-12-11</title></rect><rect fill="#FBF4F9" height="2.6" rx="0.4" ry="0.4" width="2.6" x="181.5" y="33.0"><title>2024-12-12</title></rect><rect fill="#FBF4F9" height="2.6" rx="0.4" ry="0.4" width="2.6" x="181.5" y="36.5"><title>2024-12-13</title></rect><rect fill="#FBF4F9" height="2.6" rx="0.4" ry="0.4" width="2.6" x="181.5" y="40.0"><title>2024-12-14</title></rect><rect fill="#FBF4F9" height="2.6" rx="0.4" ry="0.4" width="2.6" x="181.5" y="43.5"><title>2024-12-15</title></rect><rect fill="#FBF4F9" height="2.6" rx="0.4" ry="0.4" width="2.6" x="185.0" y="22.5"><title>2024-12-16</title></rect><rect fill="#FBF4F9" height="2.6" rx="0.4" ry="0.4" width="2.6" x="185.0" y="26.0"><title>2024-12-17</title></rect><rect fill="#FBF4F9" height="2.6" rx="0.4" ry="0.4" width="2.6" x="185.0" y="29.5"><title>2024-12-18</title></rect><rect fill="#FBF4F9" height="2.6" rx="0.4" ry="0.4" width="2.6" x="185.0" y="33.0"><title>2024-12-19</title></rect><rect fill="#FBF4F9" height="2.6" rx="0.4" ry="0.4" width="2.6" x="185.0" y="36.5"><title>2024-12-20</title></rect><rect fill="#FBF4F9" height="2.6" rx="0.4" ry="0.4" width="2.6" x="185.0" y="40.0"><title>2024-12-21</title></rect><rect fill="#FBF4F9" height="2.6" rx="0.4" ry="0.4" width="2.6" x="185.0" y="43.5"><title>2024-12-22</title></rect><rect fill="#FBF4F9" height="2.6" rx="0.4" ry="0.4" width="2.6" x="188.5" y="22.5"><title>2024-12-23</title></rect><rect fill="#FBF4F9" height="2.6" rx="0.4" ry="0.4" width="2.6" x="188.5" y="26.0"><title>2024-12-24</title></rect><rect fill="#FBF4F9" height="2.6" rx="0.4" ry="0.4" width="2.6" x="188.5" y="29.5"><title>2024-12-25</title></rect><rect fill="#FBF4F9" height="2.6" rx="0.4" ry="0.4" width="2.6" x="188.5" y="33.0"><title>2024-12-26</title></rect><rect fill="#FBF4F9" height="2.6" rx="0.4" ry="0.4" width="2.6" x="188.5" y="36.5"><title>2024-12-27</title></rect><rect fill="#FBF4F9" height="2.6" rx="0.4" ry="0.4" width="2.6" x="188.5" y="40.0"><title>2024-12-28</title></rect><rect fill="#FBF4F9" height="2.6" rx="0.4" ry="0.4" width="2.6" x="188.5" y="43.5"><title>2024-12-29</title></rect><rect fill="#FBF4F9" height="2.6" rx="0.4" ry="0.4" width="2.6" x="192.0" y="22.5"><title>2024-12-30</title></rect><rect fill="#FBF4F9" height="2.6" rx="0.4" ry="0.4" width="2.6" x="192.0" y="26.0"><title>2024-12-31</title></rect></svg>